<?xml version="1.0" encoding="utf-8"?>
<!-- Generator: Adobe Illustrator 16.0.0, SVG Export Plug-In . SVG Version: 6.00 Build 0)  -->
<!DOCTYPE svg PUBLIC "-//W3C//DTD SVG 1.1//EN" "http://www.w3.org/Graphics/SVG/1.1/DTD/svg11.dtd">
<svg version="1.1" id="Layer_2" xmlns="http://www.w3.org/2000/svg" xmlns:xlink="http://www.w3.org/1999/xlink" x="0px" y="0px"
	 width="235.5px" height="235.008px" viewBox="-25.514 -20.605 235.5 235.008"
	 enable-background="new -25.514 -20.605 235.5 235.008" xml:space="preserve">
<path fill="#FFFFFF" d="M138.164,86.041c-9.333,0-15.518,5.826-16.154,15.131h31.672C152.853,91.784,147.937,86.041,138.164,86.041z
	 M59.165,100.62H35.722v26.95h23.001c8.753,0,15.905-3.093,15.905-12.978C74.628,104.568,68.636,100.62,59.165,100.62z
	 M70.651,74.222c0-9.001-6.986-11.183-14.745-11.183H35.722v22.835h21.813C65.212,85.875,70.651,82.533,70.651,74.222z
	 M92.236-20.917c-65.032,0-117.75,52.718-117.75,117.75s52.718,117.75,117.75,117.75s117.75-52.718,117.75-117.75
	S157.268-20.917,92.236-20.917z M118.034,51.469h39.68v9.637h-39.68V51.469z M61.65,144.191H14.212V46.333h46.14
	c16.761,0,31.284,4.75,31.284,24.244c0,9.885-4.583,16.235-13.364,20.434c12.04,3.396,17.866,12.481,17.866,24.768
	C96.138,135.66,79.433,144.191,61.65,144.191z M173.093,113.432h-51.109c0,11.349,5.991,18.029,17.395,18.029
	c5.909,0,13.529-3.202,15.38-9.249h17.175c-5.272,16.209-16.235,23.829-33.163,23.829c-22.364,0-36.254-15.131-36.254-37.194
	c0-21.261,14.662-37.497,36.254-37.497c22.229,0,34.489,17.479,34.489,38.436C173.259,111.029,173.176,112.271,173.093,113.432z"/>
</svg>
