<?xml version="1.0" encoding="utf-8"?>
<!-- Generator: Adobe Illustrator 16.0.0, SVG Export Plug-In . SVG Version: 6.00 Build 0)  -->
<!DOCTYPE svg PUBLIC "-//W3C//DTD SVG 1.1//EN" "http://www.w3.org/Graphics/SVG/1.1/DTD/svg11.dtd">
<svg version="1.1" id="Layer_1" xmlns="http://www.w3.org/2000/svg" xmlns:xlink="http://www.w3.org/1999/xlink" x="0px" y="0px"
	 width="202.098px" height="230.989px" viewBox="0 0 202.098 230.989" enable-background="new 0 0 202.098 230.989"
	 xml:space="preserve">
<g id="m18Hzh.tif">
	<g>
		<path fill-rule="evenodd" clip-rule="evenodd" fill="#8C734A" d="M47.815,38.434c-1.713-3.842-2.933-7.839-3.754-11.962
			c-1.46-7.325-1.833-14.722-1.473-22.168C42.657,2.882,42.751,1.462,42.974,0c0.167,0.333,0.339,0.662,0.5,0.997
			c3.801,7.917,7.936,15.643,12.886,22.918c7.471,10.977,17.092,19.576,28.574,26.177c8.744,5.027,17.908,9.176,27.111,13.255
			c9.654,4.279,19.449,8.237,28.941,12.876c7.492,3.663,14.848,7.564,21.66,12.412c6.131,4.361,11.541,9.425,15.497,15.909
			c3.208,5.258,5.199,10.998,6.696,16.932c0.344,1.363,0.688,2.729,0.958,4.106c0.124,0.632,0.409,1.108,0.82,1.577
			c5.9,6.751,10.099,14.396,11.887,23.232c1.014,5.008,1.165,10.036-0.566,14.954c-0.883,2.505-2.306,4.644-4.623,6.072
			c-0.349,0.216-0.445,0.523-0.541,0.876c-0.78,2.851-1.659,5.665-3.283,8.178c-1.034,1.6-2.29,2.969-3.951,3.938
			c-1.071,0.625-2.171,0.761-3.327,0.264c-0.987-0.425-1.989-0.816-2.958-1.281c-0.491-0.235-0.814-0.186-1.247,0.155
			c-3.812,3.006-7.997,5.292-12.743,6.461c-1.908,0.472-3.834,0.751-5.829,0.611c0.033-0.447,0.329-0.725,0.521-1.044
			c2.718-4.553,5.31-9.166,7.043-14.206c0.216-0.625,0.387-1.266,0.583-1.896c0.288-0.93,0.223-1.82-0.108-2.746
			c-1.011-2.83-2.324-5.485-4.249-7.811c-1.968-2.378-4.407-3.826-7.554-4.108c-7.309-0.654-14.374,0.19-21.126,3.17
			c-1.821,0.803-3.521,1.818-5.162,2.956c-3.615,2.505-4.018,6.196-3.116,9.432c0.618,2.22,1.8,4.142,3.241,5.91
			c2.451,3.006,5.407,5.415,8.723,7.422c2.148,1.299,4.453,1.522,6.859,1.331c4.889-0.386,8.931-2.457,12.149-6.15
			c0.031-0.033,0.096-0.037,0.214-0.081c0.149,2.094-0.087,4.132-0.527,6.142c-1.304,5.952-4.408,10.774-9.234,14.481
			c-0.435,0.331-0.611,0.677-0.668,1.222c-0.496,4.792-1.621,9.405-4.172,13.561c-3.453,5.631-8.604,8.801-14.951,10.19
			c-5.507,1.205-11.027,0.964-16.544,0.1c-3.574-0.559-7.08-1.417-10.512-2.567c-0.228-0.077-0.452-0.169-0.79-0.297
			c6.052-2.008,12.406-3.149,16.836-8.208c-10.523,2.182-20.25,0.459-29.418-5.487c4.613-0.78,8.853-2.021,12.874-3.942
			c2.81-1.339,5.446-2.951,7.384-5.469c1.545-2.008,2.413-4.233,1.694-6.797c-0.474-1.69-1.648-2.916-2.991-3.972
			c-2.775-2.18-5.995-3.481-9.289-4.621c-4.995-1.73-10.186-2.645-15.353-3.65c-0.866-0.168-1.729-0.371-2.603-0.476
			c-0.654-0.08-0.718-0.27-0.393-0.814c1.983-3.327,4.245-6.457,6.675-9.467c3.282-4.066,6.82-7.902,10.545-11.565
			c0.25-0.245,0.562-0.445,0.724-0.849c-0.403-0.1-0.69,0.136-0.991,0.268c-4.951,2.174-9.142,5.434-12.986,9.166
			c-3.574,3.472-6.87,7.186-9.515,11.432c-0.263,0.423-0.573,0.35-0.915,0.319c-3.219-0.277-6.443-0.478-9.675-0.481
			c-12.991-0.021-25.528,2.216-37.402,7.64c-7.774,3.549-14.835,8.157-20.838,14.3c-0.435,0.444-0.849,0.91-1.406,1.507
			c0.178-2.064,0.509-3.898,0.894-5.721c2.518-11.933,7.012-23.034,14.049-33.039c8.659-12.31,20.076-21.048,34.192-26.262
			c0.207-0.078,0.416-0.147,0.619-0.233c0.037-0.015,0.053-0.082,0.181-0.3c-19.167,3.809-34.277,13.931-46.74,28.56
			c-0.02-1.088,0.194-2.128,0.36-3.158c2.247-13.99,6.468-27.344,13.031-39.924c5.531-10.602,12.562-20.054,21.626-27.924
			c7.651-6.644,16.264-11.637,25.807-15.036c0.951-0.338,0.941-0.339,0.299-1.109c-4.933-5.908-8.462-12.63-11.41-19.688
			c-0.966-2.316-1.815-4.676-2.594-7.062c-0.114-0.347-0.25-0.628-0.583-0.853c-7.958-5.371-12.823-12.83-14.908-22.154
			c-0.12-0.538-0.211-1.082-0.311-1.624c-0.006-0.037,0.034-0.083,0.08-0.191c1.516,2.083,3.146,4.021,5.012,5.747
			c1.598,1.478,3.209,2.945,5.129,4.015c0.048,0.026,0.098,0.052,0.146,0.078C47.866,38.533,47.841,38.483,47.815,38.434z
			 M20.946,148.029c2.77-2.696,5.938-4.828,9.355-6.611c4.868-2.539,10.018-4.312,15.323-5.662c8.204-2.088,16.57-2.992,25.003-3.28
			c4.992-0.171,9.993-0.1,14.985,0.15c1.756,0.086,3.508,0.237,5.262,0.361c-16.757,0.76-31.882,6.266-45.51,15.895
			c-13.79,9.746-23.335,22.687-28.657,38.935c1.161-0.878,2.136-1.681,3.175-2.389c5.24-3.567,11.048-5.835,17.15-7.412
			c7.517-1.941,15.183-2.631,22.918-2.608c2.807,0.01,5.623,0.092,8.42,0.399c0.413,0.044,0.622-0.14,0.819-0.418
			c1.925-2.712,4.201-5.1,6.662-7.333c4.715-4.279,9.981-7.736,15.668-10.553c5.429-2.688,11.113-4.699,17.021-6.059
			c1.294-0.299,2.584-0.635,3.929-0.79c-0.015,0.259-0.164,0.297-0.272,0.371c-4.076,2.786-7.686,6.092-10.996,9.749
			c-4.772,5.273-8.682,11.122-11.875,17.465c-0.312,0.621-0.168,0.791,0.431,0.914c2.675,0.55,5.284,1.344,7.877,2.19
			c5.388,1.76,10.339,4.239,14.275,8.473c3.592,3.86,4.208,9.204,1.548,13.753c-1.71,2.922-3.966,5.354-6.512,7.545
			c-0.803,0.69-1.613,1.371-2.543,2.162c0.858,0.075,1.534,0.161,2.212,0.189c2.598,0.1,5.19-0.018,7.742-0.501
			c4.197-0.797,8.062-2.195,10.244-6.401c1.562,2.337,1.757,4.751,0.797,7.279c-1.113,2.935-3.23,5.101-5.541,7.103
			c-0.722,0.625-1.498,1.188-2.248,1.778c0.01,0.071,0.02,0.146,0.029,0.218c1.115,0,2.23-0.013,3.345,0.002
			c4.16,0.048,8.255-0.344,12.187-1.82c3.089-1.16,5.766-2.898,7.682-5.644c2.761-3.954,3.323-8.377,2.65-13.032
			c-0.065-0.453-0.044-0.716,0.376-0.936c2.915-1.525,4.889-3.994,6.606-6.695c1.06-1.664,2.002-3.401,2.756-5.509
			c-0.524,0.35-0.854,0.571-1.188,0.788c-3.502,2.29-7.299,3.346-11.479,2.659c-1.598-0.264-3.195-0.557-4.533-1.621
			c-4.275-3.397-8.15-7.195-11.479-11.525c-2.727-3.547-5.131-7.277-5.581-11.892c-0.175-1.795,0.131-3.543,1.226-5.024
			c1.828-2.476,4.305-4.193,7.009-5.56c7.542-3.806,15.521-5.664,24.005-5.335c4.499,0.172,8.274,1.801,11.473,4.942
			c3.057,3.002,5.296,6.557,7.135,10.381c0.782,1.627,1.674,3.244,1.442,5.185c-0.157,1.323-0.493,2.599-0.927,3.844
			c-1.245,3.585-2.934,6.96-4.896,10.204c-0.122,0.203-0.387,0.434-0.25,0.658c0.166,0.275,0.511,0.132,0.759,0.078
			c1.977-0.439,3.861-1.117,5.613-2.151c2.342-1.384,4.296-3.184,5.858-5.401c0.359-0.509,0.619-0.543,1.09-0.152
			c0.462,0.386,0.988,0.709,1.52,0.994c2.142,1.156,4.095,0.851,5.777-0.93c1.318-1.394,2.046-3.134,2.656-4.914
			c1.167-3.401,1.906-6.885,2.051-10.5c0.099-2.423-0.049-4.786-1.05-7.027c-0.554-1.24-1.375-2.26-2.633-2.864
			c-0.57-0.275-0.931-0.344-1.034,0.515c-0.122,1.004-0.396,2.002-0.925,2.896c-0.194,0.331-0.372,0.683-0.705,0.904
			c-0.404,0.271-0.686,0.245-0.673-0.328c0.018-0.8,0.021-1.601,0.085-2.396c0.217-2.713,0.284-5.401-0.858-7.967
			c-0.071-0.155-0.286-0.341-0.089-0.507c0.096-0.08,0.317-0.05,0.469-0.018c2.312,0.499,4.426,1.449,6.112,3.115
			c3.665,3.619,4.681,8.09,3.996,13.062c-0.128,0.926-0.511,1.809-0.553,2.86c0.756-0.407,1.1-1.002,1.425-1.601
			c1.064-1.963,1.452-4.118,1.499-6.298c0.104-4.887-1.026-9.567-2.743-14.106c-2.24-5.916-5.532-11.151-10.294-15.39
			c-0.244-0.219-0.333-0.477-0.404-0.784c-0.623-2.708-1.182-5.431-1.936-8.11c-1.26-4.482-2.937-8.783-5.404-12.753
			c-3.279-5.28-7.658-9.523-12.553-13.273c-5.472-4.193-11.396-7.667-17.476-10.877c-8.74-4.617-17.766-8.635-26.824-12.575
			c-6.979-3.036-13.973-6.04-20.876-9.245c-6.231-2.893-12.393-5.929-18.299-9.456c-6.605-3.946-12.874-8.325-18.158-13.99
			c-2.286-2.452-4.325-5.083-6.031-7.966c-0.678-1.145-1.288-2.33-2.035-3.688c0.146,2.113,0.297,4.001,0.509,5.89
			c0.487,4.355,1.27,8.655,2.286,12.914c1.474,6.179,3.439,12.194,5.988,18.019c3.214,7.344,7.195,14.221,12.263,20.449
			c0.64,0.787,0.619,0.902-0.395,1.075c-3.297,0.561-6.367,1.772-9.335,3.255c-8.292,4.142-15.056,10.17-20.964,17.208
			c-5.385,6.414-9.72,13.519-13.42,21.015c-2.871,5.82-5.281,11.832-7.377,17.97c-0.453,1.328-0.995,2.629-1.194,4.032
			c-0.022,0.036-0.044,0.072-0.067,0.106C20.88,148.077,20.913,148.052,20.946,148.029z M53.347,138.975
			c-0.052-0.017-0.098-0.034-0.145-0.04c-0.018-0.002-0.04,0.023-0.06,0.038c0.029,0.021,0.059,0.062,0.086,0.06
			C53.267,139.031,53.303,138.999,53.347,138.975z M96.914,160.149c-0.02,0.016-0.04,0.03-0.06,0.044
			c0.017,0.018,0.032,0.05,0.05,0.05c0.018,0.002,0.039-0.024,0.059-0.038C96.947,160.185,96.931,160.167,96.914,160.149z"/>
		<path fill-rule="evenodd" clip-rule="evenodd" fill="#501214" d="M20.913,147.995c0.2-1.403,0.742-2.704,1.195-4.032
			c2.096-6.138,4.506-12.149,7.377-17.97c3.7-7.497,8.035-14.601,13.42-21.015c5.908-7.038,12.671-13.066,20.964-17.208
			c2.968-1.483,6.038-2.695,9.335-3.255c1.014-0.173,1.035-0.289,0.395-1.075c-5.068-6.228-9.048-13.105-12.263-20.449
			c-2.549-5.825-4.514-11.84-5.988-18.019c-1.016-4.259-1.798-8.559-2.286-12.914c-0.212-1.888-0.362-3.777-0.509-5.89
			c0.747,1.359,1.357,2.544,2.035,3.688c1.707,2.883,3.745,5.514,6.031,7.966c5.285,5.666,11.553,10.044,18.158,13.99
			c5.906,3.527,12.068,6.563,18.299,9.456c6.903,3.205,13.898,6.208,20.876,9.245c9.059,3.939,18.084,7.958,26.824,12.575
			c6.079,3.211,12.004,6.685,17.476,10.877c4.895,3.75,9.273,7.993,12.553,13.273c2.468,3.971,4.145,8.271,5.404,12.753
			c0.754,2.679,1.312,5.402,1.936,8.11c0.071,0.308,0.16,0.565,0.404,0.784c4.762,4.238,8.054,9.474,10.294,15.39
			c1.717,4.539,2.848,9.22,2.743,14.106c-0.047,2.18-0.435,4.335-1.499,6.298c-0.325,0.599-0.669,1.193-1.425,1.601
			c0.042-1.052,0.425-1.935,0.553-2.86c0.685-4.973-0.331-9.443-3.996-13.062c-1.687-1.666-3.8-2.616-6.112-3.115
			c-0.151-0.032-0.373-0.062-0.469,0.018c-0.197,0.166,0.018,0.352,0.089,0.507c1.143,2.565,1.075,5.254,0.858,7.967
			c-0.064,0.796-0.067,1.597-0.085,2.396c-0.013,0.573,0.269,0.6,0.673,0.328c0.333-0.222,0.511-0.573,0.705-0.904
			c0.528-0.895,0.803-1.893,0.925-2.896c0.104-0.858,0.464-0.79,1.034-0.515c1.258,0.604,2.079,1.624,2.633,2.864
			c1.001,2.241,1.148,4.604,1.05,7.027c-0.145,3.615-0.884,7.099-2.051,10.5c-0.61,1.78-1.338,3.521-2.656,4.914
			c-1.683,1.78-3.636,2.086-5.777,0.93c-0.531-0.285-1.058-0.608-1.52-0.994c-0.471-0.391-0.73-0.356-1.09,0.152
			c-1.562,2.218-3.517,4.018-5.858,5.401c-1.752,1.034-3.637,1.712-5.613,2.151c-0.248,0.054-0.593,0.197-0.759-0.078
			c-0.137-0.225,0.128-0.455,0.25-0.658c1.962-3.244,3.65-6.619,4.896-10.204c0.434-1.245,0.77-2.521,0.927-3.844
			c0.231-1.94-0.66-3.558-1.442-5.185c-1.839-3.824-4.078-7.379-7.135-10.381c-3.198-3.142-6.974-4.771-11.473-4.942
			c-8.484-0.329-16.463,1.529-24.005,5.335c-2.704,1.366-5.181,3.084-7.009,5.56c-1.095,1.481-1.4,3.229-1.226,5.024
			c0.45,4.614,2.854,8.345,5.581,11.892c3.328,4.33,7.203,8.128,11.479,11.525c1.338,1.064,2.936,1.357,4.533,1.621
			c4.18,0.687,7.977-0.369,11.479-2.659c0.333-0.217,0.663-0.438,1.188-0.788c-0.754,2.107-1.696,3.845-2.756,5.509
			c-1.718,2.701-3.691,5.17-6.606,6.695c-0.42,0.22-0.441,0.482-0.376,0.936c0.673,4.655,0.11,9.078-2.65,13.032
			c-1.916,2.745-4.593,4.483-7.682,5.644c-3.932,1.477-8.026,1.868-12.187,1.82c-1.114-0.015-2.229-0.002-3.345-0.002
			c-0.01-0.072-0.02-0.146-0.029-0.218c0.75-0.591,1.526-1.153,2.248-1.778c2.311-2.002,4.428-4.168,5.541-7.103
			c0.96-2.528,0.766-4.942-0.797-7.279c-2.182,4.206-6.047,5.604-10.244,6.401c-2.552,0.483-5.145,0.601-7.742,0.501
			c-0.679-0.028-1.354-0.114-2.212-0.189c0.931-0.791,1.741-1.472,2.543-2.162c2.546-2.191,4.802-4.623,6.512-7.545
			c2.66-4.549,2.044-9.893-1.548-13.753c-3.937-4.233-8.887-6.713-14.275-8.473c-2.593-0.847-5.202-1.641-7.877-2.19
			c-0.599-0.123-0.743-0.293-0.431-0.914c3.193-6.343,7.103-12.191,11.875-17.465c3.31-3.657,6.92-6.963,10.996-9.749
			c0.108-0.074,0.258-0.112,0.272-0.371c-1.345,0.155-2.635,0.491-3.929,0.79c-5.908,1.359-11.592,3.371-17.021,6.059
			c-5.687,2.816-10.953,6.273-15.668,10.553c-2.461,2.233-4.737,4.621-6.662,7.333c-0.197,0.278-0.406,0.462-0.819,0.418
			c-2.797-0.308-5.613-0.39-8.42-0.399c-7.735-0.022-15.401,0.667-22.918,2.608c-6.102,1.577-11.91,3.845-17.15,7.412
			c-1.04,0.708-2.015,1.511-3.175,2.389c5.321-16.248,14.867-29.188,28.657-38.935c13.628-9.629,28.753-15.135,45.51-15.895
			c-1.753-0.124-3.506-0.275-5.262-0.361c-4.993-0.25-9.993-0.321-14.985-0.15c-8.434,0.288-16.8,1.192-25.003,3.28
			c-5.306,1.351-10.456,3.123-15.323,5.662c-3.417,1.783-6.585,3.915-9.355,6.611L20.913,147.995z M126.33,88.701
			c0.076-0.082,0.152-0.164,0.229-0.245c-0.15-0.077-0.32-0.13-0.447-0.235c-4.174-3.46-8.654-6.462-13.436-9.021
			c-6.752-3.615-13.939-6.219-21.025-9.056c-6.951-2.783-13.723-5.912-20.032-9.979c-0.153-0.099-0.303-0.321-0.499-0.219
			c-0.239,0.124-0.124,0.398-0.122,0.602c0.024,2.225,0.513,4.372,1.192,6.472c1.817,5.621,4.788,10.639,8.137,15.458
			c0.216,0.309,0.441,0.38,0.835,0.314c2.743-0.457,5.512-0.766,8.285-0.862c4.795-0.166,9.583-0.051,14.357,0.587
			c5.31,0.71,10.503,1.882,15.589,3.547C121.746,86.833,124.054,87.723,126.33,88.701z M161.895,128.794
			c-0.134-0.339,0.007-0.499,0.088-0.666c1.394-2.894,2.502-5.874,2.9-9.091c0.069-0.572-0.044-0.894-0.503-1.251
			c-3.14-2.442-6.683-4.043-10.481-5.14c-0.565-0.163-0.73-0.04-0.736,0.546c-0.024,2.298,0.205,4.569,0.708,6.806
			c0.756,3.371,2.09,6.442,4.723,8.817c2.154,1.944,4.635,2.587,7.355,1.589c3.309-1.214,4.803-4.614,2.646-8.221
			C167.274,125.333,164.951,127.406,161.895,128.794z"/>
		<path fill-rule="evenodd" clip-rule="evenodd" fill="#501214" d="M20.946,148.029c-0.033,0.023-0.066,0.048-0.1,0.072
			c0.022-0.034,0.044-0.07,0.066-0.106C20.913,147.995,20.946,148.029,20.946,148.029z"/>
		<path fill-rule="evenodd" clip-rule="evenodd" fill="#8C734A" d="M126.33,88.701c-2.275-0.978-4.584-1.868-6.936-2.638
			c-5.086-1.665-10.279-2.837-15.589-3.547c-4.774-0.638-9.562-0.753-14.357-0.587c-2.773,0.096-5.542,0.405-8.285,0.862
			c-0.395,0.066-0.62-0.005-0.835-0.314c-3.349-4.818-6.32-9.837-8.137-15.458c-0.679-2.1-1.167-4.247-1.192-6.472
			c-0.002-0.204-0.117-0.478,0.122-0.602c0.196-0.102,0.346,0.121,0.499,0.219c6.309,4.066,13.081,7.196,20.032,9.979
			c7.085,2.837,14.273,5.441,21.025,9.056c4.781,2.559,9.262,5.561,13.436,9.021c0.127,0.104,0.297,0.158,0.447,0.235
			C126.482,88.537,126.406,88.619,126.33,88.701z"/>
		<path fill-rule="evenodd" clip-rule="evenodd" fill="#8C734A" d="M161.895,128.794c3.056-1.389,5.379-3.461,6.699-6.61
			c2.157,3.607,0.663,7.007-2.646,8.221c-2.721,0.998-5.201,0.355-7.355-1.589c-2.633-2.375-3.967-5.447-4.723-8.817
			c-0.503-2.237-0.732-4.508-0.708-6.806c0.006-0.586,0.171-0.709,0.736-0.546c3.799,1.096,7.342,2.697,10.481,5.14
			c0.459,0.357,0.572,0.679,0.503,1.251c-0.398,3.217-1.507,6.197-2.9,9.091C161.902,128.295,161.761,128.456,161.895,128.794z"/>
	</g>
</g>
</svg>
