<?xml version="1.0" encoding="utf-8"?>
<!-- Generator: Adobe Illustrator 16.0.0, SVG Export Plug-In . SVG Version: 6.00 Build 0)  -->
<!DOCTYPE svg PUBLIC "-//W3C//DTD SVG 1.1//EN" "http://www.w3.org/Graphics/SVG/1.1/DTD/svg11.dtd">
<svg version="1.1" id="Layer_1" xmlns="http://www.w3.org/2000/svg" xmlns:xlink="http://www.w3.org/1999/xlink" x="0px" y="0px"
	 width="612px" height="792px" viewBox="0 0 612 792" enable-background="new 0 0 612 792" xml:space="preserve">
<title>ojdCiA.tif</title>
<path fill="#00351A" d="M305.638,91.186C137.116,91.186,0,228.286,0,396.816C0,565.332,137.116,702.43,305.639,702.43
	c60.441,0,118.886-17.624,169.029-50.971c12.595-8.352,15.992-25.343,7.627-37.924c-8.367-12.594-25.355-16.008-37.938-7.644
	c-41.125,27.354-89.092,41.808-138.716,41.808c-78.148,0-148.035-35.935-194.091-92.099c1.518,0.228,3.081,0.36,4.736,0.36H173.1
	v-0.06h95.977c1.132,0.257,13.954-2.312,13.954-20.63c0-16.146-12.172-21.221-12.172-21.221c-5.431-0.423-42.899-0.846-42.899-0.846
	l-0.71-50.006h70.953c27.884,3.505,51.25,14.257,70.008,32.306c14.938,17.292,29.888,34.567,44.809,51.849
	c18.062,18.093,40.37,27.121,66.903,27.121h11.282c-0.483,8.295,2.794,16.724,9.65,22.476c11.555,9.756,28.813,8.262,38.541-3.277
	c46.336-54.972,71.856-124.883,71.856-196.859C611.254,228.286,474.153,91.186,305.638,91.186z M171.972,513.197H83.546
	C65.22,478.385,54.732,438.83,54.732,396.816c0-45.836,12.496-88.729,34.048-125.729h82.838v45.519h-29.171
	c-6.88,0-12.527,2.343-16.946,6.994c-4.424,4.651-6.636,10.63-6.636,17.865c0,7.249,2.212,13.214,6.636,17.868
	c4.418,4.665,10.066,7.006,16.946,7.006h29.171v49.718h-30.251c-6.879,0-12.543,2.224-16.968,6.615
	c-4.403,4.424-6.615,10.074-6.615,16.96c0,6.87,2.212,12.521,6.615,16.944c4.425,4.426,10.088,6.631,16.968,6.631h30.604
	L171.972,513.197L171.972,513.197z M389.126,416.057l-161.697,0.593l0.234-50.278l157.353-0.272c19.261,0,33.306,0.726,42.141,3.294
	c6.977,1.873,12.384,4.62,16.31,8.186c1.92,2.841,4.759,5.678,4.621,9.892c-0.029,14.467-9.452,20.628-22.411,24.75
	C417.82,414.787,405.631,416.057,389.126,416.057z M227.429,316.741v-45.668c8.26,0,114.064-0.274,133.708-0.274
	c27.503,0,42.621,6.359,45.387,20.903c-0.029,11.418-4.031,14.546-6.18,17.082c-2.941,3.534-10.285,7.958-18.29,7.958
	L227.429,316.741L227.429,316.741z M525.109,518.256c-5.95,2.703-14.831,4.078-26.645,4.078c-12.774,0-22.896-1.979-30.354-5.906
	c-5.104-2.941-12.081-9.026-20.936-18.271c-11.96-12.567-22.472-22.792-31.533-30.628c32.438-2.768,55.52-8.955,69.263-18.576
	c15.933-11.391,23.877-29.858,23.877-55.396c0-1.844-0.062-3.641-0.15-5.407c0.09-1.782,0.15-3.563,0.15-5.392
	c0-15.314-6.539-28.59-19.604-39.781c-7.655-6.57-16.507-11.582-26.44-15.102c-6.559-2.508-13.716-4.455-21.479-5.889
	c7.765-3.172,22.143-11.373,22.143-31.762c0-20.283-8.551-36.713-30.354-49.506c-19.453-11.386-42.621-17.383-69.562-17.955
	c-12.156-0.198-69.629-0.198-172.365,0h-38.014c-11.221-0.137-20.644,0.014-28.331,0.423
	c45.685-47.576,109.849-77.268,180.868-77.268c138.336,0,250.884,112.547,250.884,250.9
	C556.521,439.526,545.526,481.329,525.109,518.256z"/>
</svg>
