<?xml version="1.0" encoding="utf-8"?>
<!-- Generator: Adobe Illustrator 16.0.0, SVG Export Plug-In . SVG Version: 6.00 Build 0)  -->
<!DOCTYPE svg PUBLIC "-//W3C//DTD SVG 1.1//EN" "http://www.w3.org/Graphics/SVG/1.1/DTD/svg11.dtd">
<svg version="1.1" id="Layer_1" xmlns="http://www.w3.org/2000/svg" xmlns:xlink="http://www.w3.org/1999/xlink" x="0px" y="0px"
	 width="180.953px" height="182.008px" viewBox="0 0 180.953 182.008" enable-background="new 0 0 180.953 182.008"
	 xml:space="preserve">
<path fill="#FFFFFF" d="M106.011,167.285c-43.395,0-78.57-35.181-78.57-78.572c0-43.39,35.175-78.564,78.57-78.564
	c20.826,0,39.748,8.118,53.807,21.348C143.131,12.215,118.502,0,91.003,0C40.74,0,0,40.745,0,91.003s40.74,91.005,91.003,91.005
	c37.403,0,69.521-22.577,83.509-54.838C161.045,151.109,135.425,167.285,106.011,167.285"/>
<path fill="#FFFFFF" d="M159.408,93.76c-1.527,0.221-3.882,0.374-7.618,0.374c-3.558,0-17.392-0.315-20.105-1.872
	c-0.035-0.02-0.932-0.486-4.574-0.486c-2.051,0-3.863,0.149-3.878,0.154l-1.572,0.136l-11.575-18.559l1.656-1.438
	c2.614-2.278,5.176-5.071,5.484-5.976c0.392-1.381,0.759-6.874,0.891-10.326l0.04-1.084l10.894-9.823
	c-6.651-2.524-12.777-5.029-12.777-5.029l-2.507,3.015l-3.516-4.518L81.675,24.863l7.99,20.996l5.018,8.03l-6.524-5.021
	c0,0-17.572,7.033-18.573,12.553c-1.007,5.52,2.011,11.545,2.011,11.545s-24.61,22.091-24.61,25.603
	c0,3.518,25.606,15.062,25.606,15.062l18.578-8.034h6.025c0,0,23.094,18.074,19.074,28.618c-2.773,7.287-8.371,20.058-11.567,27.26
	c23.247-2.913,39.531-12.483,48.43-28.491C161.974,117.065,160.664,99.337,159.408,93.76 M82.332,74.13c0,0-1.876-0.264-2.74-1.11
	c-0.477-0.461-0.62-1.932-0.62-1.932l-1.514-0.57l9.189-0.121L82.332,74.13z"/>
<path fill="#FFFFFF" d="M179.5,76.653c-2.764-32.155-13.381-36.864-26.825-42.826c-4.597-2.038-9.618-4.264-14.555-7.817
	c1.505,3.246,3.341,7.017,5.091,10.446l0.897,1.758l-20.896,18.843c-0.123,2.626-0.441,8.356-1.044,10.463
	c-0.604,2.117-3.336,4.996-5.414,6.952l7.624,12.227c0.754-0.041,1.709-0.07,2.73-0.07c4.553,0,6.248,0.664,7.127,1.168
	c1.15,0.425,9.316,1.192,17.555,1.192c5.37,0,7.151-0.346,7.61-0.464l0.489-0.406l1.009-0.029c1.181,0,3.951,0,4.501,12.8
	c0.42,9.546-0.734,33.865-20.686,50.343c6.379-3.379,12.592-7.824,17.956-13.669C176.055,122.973,181.719,102.481,179.5,76.653
	 M135.321,64.225c0,0-1.668-0.543-2.324-1.454c-0.366-0.504-0.252-1.872-0.252-1.872l-1.279-0.775l8.397,1.405L135.321,64.225z"/>
</svg>
