<?xml version="1.0" encoding="utf-8"?>
<!-- Generator: Adobe Illustrator 16.0.0, SVG Export Plug-In . SVG Version: 6.00 Build 0)  -->
<!DOCTYPE svg PUBLIC "-//W3C//DTD SVG 1.1//EN" "http://www.w3.org/Graphics/SVG/1.1/DTD/svg11.dtd">
<svg version="1.1" xmlns="http://www.w3.org/2000/svg" xmlns:xlink="http://www.w3.org/1999/xlink" x="0px" y="0px"
	 width="549.21px" height="274.605px" viewBox="0 0 549.21 274.605" enable-background="new 0 0 549.21 274.605"
	 xml:space="preserve">
<g id="Layer_1">
	<g>
		<g>
			<path fill="#01265B" d="M224.258,91.13c-0.002,0.212,8.302-20.983,28.551-22.321c17.824-0.763,17.706,16.716,17.709,16.613
				V233.92c-0.002,0.089-2.082,17.774-19.662,13.098c-17.588-4.52-22.69-21.983-23.456-22.595
				c-0.768-0.615-12.987-4.363-18.847-17.021c-5.86-12.613-3.349-21.269-3.628-21.995c-0.281-0.788-13.716-8.835-14.569-25.366
				c-0.697-13.579,5.085-18.81,5.365-20.52c0.28-1.793-3.068-15.582,6.703-30.051C211.214,96.307,221.605,93.117,224.258,91.13"/>
		</g>
		<g>
			<path fill="#007BFF" d="M264.335,126.111V84.333c-0.001,0.017-2.505-9.568-13.202-8.221
				c-10.697,1.508-25.638,16.049-21.22,30.727c1.49,5.023,13.219-0.134,13.125-5.451c-0.059-3.39,1.437-9.051,3.65-10.366
				c2.213-1.313,4.167-0.021,3.422,3.127c-0.744,3.139-1.023,5.564-0.93,7.218c0.093,1.647,4.187,3.194,7.255,6.853
				c3.067,3.678,0.372,7.077-1.488,7.375c-1.86,0.294-5.075-5.474-8.259-5.139c-3.184,0.366-9.996,7.347-17.752,5.219
				c-7.756-2.031-6.842-13.431-7.029-15.067c0.001-0.038-6.795,1.494-12.933,10.151c-6.139,8.643-8.832,16.428-6.787,28.502
				c0.464,2.757-0.373,2.52-1.394,3.914c-1.023,1.44-5.761,9.65-3.81,18.247c1.951,8.657,5.99,15.377,12.921,19.004
				c1.168,0.61,1.116,2.04,0.93,4.396c-0.186,2.37,0.058,16.205,3.256,21.261c4.652,7.312,12.099,11.614,12.099,11.622
				c0-0.01-0.372-8.192,1.769-12.61c2.141-4.424,3.817-6.944,3.817-8.247c-0.001-1.343-5.679-7.536-6.796-10.397
				c-1.117-2.916-2.746-6.521,0.373-7.747c1.988-0.802,4.781,4.809,6.144,6.569c1.52,1.937,4.142,4.011,5.818,4.379
				c1.676,0.351,10.192-0.512,12.61,0.401c2.419,0.894,3.442,4.917,0.651,6.271c-2.79,1.324-8.467-1.454-11.818,2.507
				c-3.353,4.513-16.471,26.16,9.213,40.607c12.095,7.345,16.921-8.2,16.922-8.321v-13.835c0.001-0.024-6.411-2.984-9.666-0.855
				c-2.518,1.635-4.278,5.615-6.976,5.325c-2.699-0.295-3.257-7.535-1.117-10.062c2.139-2.525,3.257-4.107,7.535-4.315
				c4.279-0.225,11.247,1.185,11.246,1.197v-34.177c0.001,0.035-9.94,4.449-17.292,1.621c-7.35-2.827-14.358-9.277-18.215-17.278
				c-1.425-2.949-7.29,3.264-12.781,4.651c0,0.014-0.931,8.938-5.118,8.294c-4.186-0.586-0.651-8.057-1.581-10.241
				c-0.931-2.178-5.394-4.526-5.952-5.76c-0.557-1.249,0.093-3.015,1.302-3.801c1.208-0.782,3.348-1.049,5.394,0.843
				c2.047,1.896,2.698,3.646,4.094,3.498c1.395-0.14,9.422-4.593,10.517-5.719c1.955-1.991,2.384-3.218,4.683-2.92
				c2.299,0.299,2.579,6.19,3.975,8.828c1.396,2.607,6.704,11.684,15.915,13.318c9.209,1.662,13.479-5.866,13.48-5.913v-31.387
				c0-0.014-5.296-1.215-8.551,0.346c-3.255,1.541-6.325,3.471-7.069,5.824c-0.745,2.347,0.837,7.911,0.744,9.486
				c-0.093,1.57-1.954,3.875-3.629,3.749c-1.675-0.127-2.047-6.302-2.885-9.748c-0.838-3.452-4.095-6.615-9.215-7.512
				c-5.121-0.888-12.94,4.002-14.243,7.577c-1.303,3.576-7.165,1.887-5.676-2.28c1.488-4.208,6.421-5.884,5.956-8.354
				c-0.466-2.492-4.188-5.954-4.002-7.826c0.186-1.892,1.582-2.722,3.071-2.84c1.489-0.125,4.58,5.104,8.843,8.521
				c0,0.05,10.055-4.819,16.569,3.524c0.001,0.021,8.19-6.367,12.001-7.01C260.062,125.255,264.335,126.105,264.335,126.111"/>
		</g>
		<g>
			<path fill="#732062" d="M316.777,91.23c0.002,0.212-8.303-20.984-28.551-22.322c-17.824-0.762-17.706,16.716-17.709,16.613v148.5
				c0.003,0.087,2.082,17.773,19.662,13.095c17.588-4.517,22.689-21.981,23.455-22.594c0.77-0.616,12.986-4.364,18.848-17.02
				c5.859-12.613,3.35-21.27,3.629-21.996c0.279-0.786,13.717-8.835,14.568-25.365c0.697-13.578-5.086-18.811-5.365-20.521
				c-0.279-1.793,3.068-15.581-6.703-30.05C329.822,96.407,319.431,93.217,316.777,91.23"/>
		</g>
		<g>
			<path fill="#D01481" d="M276.701,126.211V84.432c0.002,0.016,2.506-9.569,13.201-8.222c10.698,1.508,25.639,16.049,21.221,30.728
				c-1.49,5.023-13.22-0.134-13.125-5.452c0.061-3.389-1.437-9.05-3.648-10.366c-2.213-1.312-4.167-0.02-3.424,3.127
				c0.744,3.139,1.023,5.565,0.932,7.218c-0.093,1.647-4.188,3.194-7.255,6.854c-3.067,3.677-0.372,7.077,1.487,7.375
				c1.859,0.293,5.074-5.475,8.26-5.139c3.184,0.365,9.996,7.347,17.752,5.219c7.756-2.032,6.842-13.432,7.027-15.068
				c0-0.038,6.795,1.494,12.936,10.152c6.137,8.642,8.83,16.427,6.785,28.502c-0.463,2.756,0.373,2.519,1.395,3.914
				c1.021,1.438,5.76,9.65,3.811,18.247c-1.951,8.656-5.99,15.377-12.922,19.004c-1.168,0.609-1.115,2.04-0.93,4.396
				c0.188,2.37-0.059,16.205-3.256,21.262c-4.652,7.311-12.1,11.613-12.1,11.621c0-0.01,0.373-8.191-1.77-12.609
				c-2.143-4.424-3.816-6.945-3.816-8.248c0-1.342,5.68-7.536,6.795-10.398c1.117-2.914,2.748-6.519-0.371-7.746
				c-1.988-0.802-4.781,4.81-6.145,6.569c-1.521,1.938-4.144,4.012-5.817,4.379c-1.677,0.352-10.192-0.512-12.61,0.402
				c-2.419,0.893-3.441,4.917-0.65,6.271c2.789,1.325,8.468-1.453,11.818,2.509c3.352,4.513,16.469,26.159-9.215,40.606
				c-12.094,7.345-16.921-8.2-16.922-8.321V217.38c0-0.022,6.412-2.982,9.666-0.854c2.52,1.634,4.277,5.615,6.977,5.325
				c2.699-0.295,3.258-7.535,1.117-10.063c-2.14-2.525-3.257-4.106-7.535-4.314c-4.279-0.226-11.246,1.184-11.246,1.196v-34.177
				c0,0.037,9.939,4.45,17.293,1.621c7.351-2.827,14.357-9.277,18.213-17.277c1.428-2.95,7.291,3.264,12.783,4.651
				c-0.002,0.013,0.93,8.937,5.117,8.293c4.186-0.585,0.65-8.056,1.582-10.241c0.93-2.177,5.393-4.525,5.949-5.76
				c0.559-1.249-0.092-3.013-1.301-3.8c-1.209-0.783-3.348-1.049-5.395,0.842c-2.047,1.896-2.697,3.646-4.094,3.499
				c-1.396-0.14-9.422-4.593-10.518-5.719c-1.955-1.991-2.385-3.219-4.684-2.92c-2.299,0.3-2.578,6.19-3.975,8.827
				c-1.396,2.607-6.705,11.685-15.915,13.318c-9.209,1.662-13.479-5.866-13.479-5.913v-31.386c0-0.014,5.295-1.215,8.551,0.345
				c3.254,1.541,6.324,3.471,7.068,5.824c0.744,2.347-0.837,7.912-0.744,9.487c0.094,1.569,1.953,3.875,3.629,3.749
				s2.047-6.303,2.885-9.748c0.84-3.452,4.096-6.615,9.215-7.512c5.123-0.888,12.941,4.001,14.244,7.576
				c1.303,3.577,7.164,1.887,5.676-2.28c-1.488-4.208-6.42-5.884-5.955-8.354c0.465-2.492,4.188-5.954,4.002-7.826
				c-0.188-1.891-1.582-2.721-3.07-2.84c-1.49-0.125-4.58,5.104-8.844,8.522c0,0.05-10.055-4.818-16.568,3.523
				c-0.002,0.021-8.189-6.367-12.002-7.009C280.975,125.355,276.701,126.205,276.701,126.211"/>
		</g>
	</g>
	<g>
		<g>
			<path d="M436.242,67.951c-1.1,0-1.965,0.366-2.602,1.097c-0.637,0.732-0.953,1.733-0.953,3.005c0,1.309,0.307,2.318,0.92,3.031
				c0.613,0.714,1.486,1.07,2.621,1.07c0.697,0,1.492-0.125,2.387-0.376v1.019c-0.693,0.26-1.547,0.39-2.562,0.39
				c-1.473,0-2.609-0.446-3.408-1.339c-0.801-0.895-1.199-2.163-1.199-3.809c0-1.03,0.191-1.932,0.576-2.707
				c0.387-0.774,0.941-1.372,1.668-1.791c0.729-0.42,1.582-0.629,2.566-0.629c1.049,0,1.965,0.191,2.748,0.574l-0.49,0.998
				C437.755,68.129,437,67.951,436.242,67.951"/>
		</g>
		<g>
			<path d="M444.742,69.421c0.334,0,0.631,0.027,0.896,0.082l-0.158,1.054c-0.311-0.069-0.582-0.104-0.82-0.104
				c-0.605,0-1.125,0.246-1.555,0.739c-0.432,0.492-0.646,1.104-0.646,1.838v4.02h-1.135v-7.491h0.938l0.129,1.387h0.057
				c0.277-0.487,0.611-0.863,1.004-1.128C443.841,69.552,444.273,69.421,444.742,69.421"/>
		</g>
		<g>
			<path d="M450.904,77.186c-1.107,0-1.98-0.337-2.621-1.012s-0.959-1.61-0.959-2.81c0-1.207,0.297-2.167,0.891-2.878
				c0.596-0.711,1.395-1.066,2.396-1.066c0.938,0,1.682,0.309,2.229,0.927c0.547,0.617,0.82,1.432,0.82,2.443v0.718h-5.162
				c0.021,0.88,0.246,1.548,0.668,2.004c0.42,0.454,1.014,0.683,1.779,0.683c0.807,0,1.604-0.168,2.393-0.506v1.012
				c-0.4,0.173-0.779,0.297-1.137,0.373C451.841,77.149,451.41,77.186,450.904,77.186 M450.597,70.371
				c-0.602,0-1.082,0.196-1.438,0.588c-0.359,0.393-0.57,0.935-0.633,1.627h3.916c0-0.715-0.158-1.264-0.479-1.644
				C451.644,70.561,451.189,70.371,450.597,70.371"/>
		</g>
		<g>
			<path d="M460.9,77.05l-0.227-1.066h-0.055c-0.373,0.47-0.746,0.788-1.117,0.954c-0.371,0.167-0.836,0.25-1.391,0.25
				c-0.744,0-1.326-0.192-1.746-0.575c-0.422-0.383-0.633-0.927-0.633-1.633c0-1.515,1.209-2.308,3.629-2.379l1.271-0.041v-0.466
				c0-0.588-0.127-1.021-0.381-1.302c-0.252-0.281-0.656-0.421-1.213-0.421c-0.623,0-1.33,0.192-2.119,0.574l-0.348-0.868
				c0.369-0.201,0.771-0.358,1.213-0.472c0.439-0.113,0.881-0.17,1.322-0.17c0.895,0,1.555,0.197,1.986,0.594
				c0.43,0.396,0.646,1.033,0.646,1.908v5.112H460.9z M458.337,76.25c0.705,0,1.26-0.193,1.664-0.581
				c0.402-0.387,0.605-0.93,0.605-1.627v-0.677l-1.137,0.048c-0.9,0.032-1.553,0.172-1.951,0.42
				c-0.398,0.249-0.598,0.635-0.598,1.159c0,0.41,0.123,0.722,0.373,0.937C457.542,76.143,457.89,76.25,458.337,76.25"/>
		</g>
		<g>
			<path d="M467.199,76.25c0.201,0,0.396-0.015,0.582-0.044c0.186-0.03,0.334-0.061,0.443-0.093v0.868
				c-0.123,0.06-0.305,0.108-0.543,0.146c-0.24,0.039-0.455,0.06-0.646,0.06c-1.449,0-2.174-0.765-2.174-2.291v-4.457h-1.072v-0.546
				l1.072-0.473l0.479-1.6h0.656v1.737h2.174v0.881h-2.174v4.41c0,0.45,0.107,0.797,0.322,1.039
				C466.531,76.129,466.826,76.25,467.199,76.25"/>
		</g>
		<g>
			<path d="M470.326,67.527c0-0.259,0.062-0.45,0.191-0.57c0.129-0.121,0.287-0.182,0.479-0.182c0.184,0,0.34,0.062,0.473,0.185
				c0.131,0.123,0.197,0.312,0.197,0.567c0,0.256-0.066,0.446-0.197,0.571c-0.133,0.126-0.289,0.188-0.473,0.188
				c-0.191,0-0.35-0.062-0.479-0.188C470.39,67.973,470.326,67.783,470.326,67.527 M471.556,77.05h-1.135v-7.491h1.135V77.05z"/>
		</g>
		<g>
			<path d="M476.304,77.05l-2.844-7.491h1.217l1.613,4.442c0.363,1.039,0.578,1.714,0.643,2.024h0.057
				c0.049-0.242,0.209-0.742,0.473-1.501c0.27-0.759,0.865-2.414,1.795-4.966h1.217l-2.844,7.491H476.304z"/>
		</g>
		<g>
			<path d="M485.542,77.186c-1.107,0-1.982-0.337-2.621-1.012c-0.641-0.675-0.961-1.61-0.961-2.81c0-1.207,0.297-2.167,0.891-2.878
				c0.598-0.711,1.395-1.066,2.396-1.066c0.938,0,1.682,0.309,2.229,0.927c0.549,0.617,0.822,1.432,0.822,2.443v0.718h-5.162
				c0.021,0.88,0.244,1.548,0.666,2.004c0.422,0.454,1.016,0.683,1.781,0.683c0.807,0,1.605-0.168,2.393-0.506v1.012
				c-0.4,0.173-0.779,0.297-1.137,0.373C486.478,77.149,486.048,77.186,485.542,77.186 M485.234,70.371
				c-0.602,0-1.08,0.196-1.438,0.588c-0.357,0.393-0.57,0.935-0.633,1.627h3.916c0-0.715-0.158-1.264-0.479-1.644
				C486.283,70.561,485.828,70.371,485.234,70.371"/>
		</g>
		<g>
			<path d="M63.077,51.951c-1.099,0-1.966,0.366-2.602,1.097c-0.635,0.732-0.953,1.733-0.953,3.005c0,1.309,0.306,2.318,0.919,3.031
				c0.613,0.714,1.487,1.07,2.622,1.07c0.698,0,1.493-0.125,2.385-0.376v1.019c-0.691,0.26-1.547,0.39-2.562,0.39
				c-1.473,0-2.609-0.446-3.409-1.339c-0.799-0.895-1.199-2.163-1.199-3.809c0-1.03,0.192-1.932,0.577-2.707
				c0.386-0.774,0.941-1.372,1.668-1.791c0.727-0.42,1.583-0.629,2.568-0.629c1.047,0,1.963,0.191,2.748,0.574l-0.492,0.998
				C64.589,52.129,63.833,51.951,63.077,51.951"/>
		</g>
		<g>
			<path d="M74.625,57.297c0,1.222-0.308,2.176-0.923,2.861c-0.615,0.686-1.465,1.029-2.55,1.029c-0.67,0-1.264-0.158-1.784-0.473
				c-0.519-0.313-0.921-0.766-1.203-1.354c-0.282-0.587-0.424-1.275-0.424-2.064c0-1.221,0.306-2.173,0.916-2.854
				c0.611-0.681,1.458-1.022,2.543-1.022c1.048,0,1.881,0.35,2.499,1.046C74.316,55.164,74.625,56.108,74.625,57.297 M68.917,57.297
				c0,0.957,0.191,1.687,0.574,2.188c0.383,0.501,0.946,0.751,1.689,0.751c0.743,0,1.306-0.249,1.691-0.748
				c0.386-0.499,0.578-1.23,0.578-2.191c0-0.953-0.192-1.676-0.578-2.17c-0.385-0.495-0.953-0.742-1.705-0.742
				c-0.743,0-1.304,0.244-1.682,0.731C69.106,55.604,68.917,56.331,68.917,57.297"/>
		</g>
		<g>
			<path d="M82.415,60.045h-0.062c-0.524,0.762-1.308,1.142-2.352,1.142c-0.979,0-1.742-0.335-2.286-1.005
				c-0.545-0.671-0.817-1.622-0.817-2.857s0.273-2.194,0.82-2.878c0.547-0.684,1.308-1.025,2.283-1.025
				c1.017,0,1.796,0.369,2.338,1.107h0.089l-0.048-0.54l-0.027-0.526v-3.049h1.135v10.636h-0.923L82.415,60.045z M80.145,60.236
				c0.774,0,1.336-0.211,1.686-0.632c0.347-0.422,0.522-1.103,0.522-2.041v-0.239c0-1.062-0.177-1.819-0.53-2.273
				c-0.353-0.453-0.917-0.68-1.692-0.68c-0.665,0-1.174,0.259-1.527,0.776c-0.354,0.517-0.53,1.247-0.53,2.19
				c0,0.957,0.175,1.68,0.526,2.167S79.466,60.236,80.145,60.236"/>
		</g>
		<g>
			<path d="M89.759,61.186c-1.108,0-1.982-0.337-2.622-1.012c-0.64-0.675-0.96-1.61-0.96-2.81c0-1.207,0.297-2.167,0.891-2.878
				c0.596-0.711,1.394-1.066,2.397-1.066c0.938,0,1.681,0.309,2.228,0.927c0.547,0.617,0.821,1.432,0.821,2.443v0.718h-5.162
				c0.023,0.88,0.245,1.548,0.667,2.003c0.421,0.455,1.015,0.684,1.781,0.684c0.806,0,1.604-0.168,2.392-0.506v1.012
				c-0.401,0.173-0.78,0.297-1.137,0.373C90.696,61.149,90.264,61.186,89.759,61.186 M89.451,54.371
				c-0.602,0-1.081,0.196-1.439,0.588c-0.358,0.393-0.569,0.935-0.632,1.627h3.917c0-0.715-0.159-1.264-0.479-1.644
				C90.5,54.561,90.044,54.371,89.451,54.371"/>
		</g>
		<g>
			<path d="M41.385,74.391c0,0.879-0.319,1.564-0.957,2.058c-0.638,0.492-1.504,0.738-2.598,0.738c-1.185,0-2.096-0.153-2.734-0.458
				v-1.121c0.41,0.173,0.857,0.31,1.34,0.41c0.483,0.1,0.961,0.149,1.435,0.149c0.775,0,1.358-0.146,1.75-0.44
				s0.588-0.703,0.588-1.228c0-0.346-0.069-0.63-0.208-0.851c-0.139-0.222-0.372-0.425-0.698-0.612
				c-0.325-0.187-0.821-0.397-1.486-0.635c-0.93-0.333-1.594-0.728-1.993-1.184c-0.399-0.454-0.598-1.05-0.598-1.783
				c0-0.771,0.289-1.384,0.868-1.839c0.579-0.455,1.344-0.685,2.297-0.685c0.994,0,1.907,0.184,2.741,0.547l-0.362,1.013
				c-0.825-0.347-1.627-0.52-2.406-0.52c-0.616,0-1.097,0.132-1.443,0.396c-0.346,0.264-0.519,0.631-0.519,1.101
				c0,0.346,0.064,0.63,0.191,0.851c0.127,0.222,0.343,0.425,0.646,0.608c0.303,0.185,0.767,0.389,1.391,0.612
				c1.048,0.373,1.77,0.774,2.164,1.203C41.188,73.15,41.385,73.707,41.385,74.391"/>
		</g>
		<g>
			<path d="M47.124,77.186c-1.108,0-1.982-0.337-2.622-1.012s-0.96-1.61-0.96-2.81c0-1.207,0.297-2.167,0.892-2.878
				c0.594-0.711,1.393-1.066,2.396-1.066c0.939,0,1.681,0.309,2.228,0.927c0.547,0.617,0.821,1.432,0.821,2.443v0.718h-5.162
				c0.023,0.88,0.245,1.548,0.667,2.004c0.421,0.454,1.015,0.683,1.781,0.683c0.806,0,1.604-0.168,2.392-0.506v1.012
				c-0.401,0.173-0.78,0.297-1.138,0.373C48.061,77.149,47.628,77.186,47.124,77.186 M46.815,70.371
				c-0.602,0-1.081,0.196-1.439,0.588c-0.358,0.393-0.568,0.935-0.632,1.627h3.917c0-0.715-0.16-1.264-0.479-1.644
				C47.863,70.561,47.408,70.371,46.815,70.371"/>
		</g>
		<g>
			<path d="M55.171,77.187c-0.966,0-1.72-0.339-2.263-1.019c-0.542-0.68-0.813-1.627-0.813-2.844c0-1.226,0.273-2.183,0.82-2.871
				c0.547-0.688,1.308-1.032,2.283-1.032c1.026,0,1.814,0.388,2.366,1.162h0.061l0.164-1.025h0.896v10.855H57.55v-3.206
				c0-0.456,0.025-0.844,0.075-1.162h-0.089C57.012,76.806,56.225,77.187,55.171,77.187 M55.342,76.236
				c0.756,0,1.308-0.203,1.654-0.608c0.346-0.405,0.531-1.09,0.554-2.051v-0.253c0-1.048-0.178-1.802-0.533-2.263
				c-0.356-0.46-0.919-0.69-1.689-0.69c-0.665,0-1.174,0.259-1.528,0.776c-0.353,0.517-0.529,1.247-0.529,2.19
				s0.174,1.662,0.523,2.156C54.143,75.989,54.658,76.236,55.342,76.236"/>
		</g>
		<g>
			<path d="M62.858,69.558v4.859c0,0.611,0.139,1.067,0.416,1.368c0.279,0.3,0.713,0.451,1.307,0.451
				c0.783,0,1.357-0.215,1.718-0.644c0.364-0.428,0.543-1.128,0.543-2.098v-3.938h1.135v7.491h-0.935l-0.164-1.005h-0.063
				c-0.232,0.369-0.555,0.652-0.967,0.849c-0.412,0.195-0.883,0.294-1.412,0.294c-0.91,0-1.594-0.216-2.047-0.65
				c-0.453-0.433-0.68-1.125-0.68-2.078v-4.9H62.858z"/>
		</g>
		<g>
			<path d="M74.25,77.186c-1.108,0-1.982-0.337-2.622-1.012s-0.96-1.61-0.96-2.81c0-1.207,0.297-2.167,0.891-2.878
				c0.596-0.711,1.394-1.066,2.397-1.066c0.938,0,1.681,0.309,2.228,0.927c0.547,0.617,0.821,1.432,0.821,2.443v0.718h-5.162
				c0.023,0.88,0.245,1.548,0.667,2.004c0.421,0.454,1.015,0.683,1.781,0.683c0.806,0,1.604-0.168,2.392-0.506v1.012
				c-0.401,0.173-0.78,0.297-1.137,0.373C75.187,77.149,74.754,77.186,74.25,77.186 M73.941,70.371
				c-0.602,0-1.081,0.196-1.439,0.588c-0.358,0.393-0.569,0.935-0.632,1.627h3.917c0-0.715-0.159-1.264-0.479-1.644
				C74.989,70.561,74.535,70.371,73.941,70.371"/>
		</g>
		<g>
			<path d="M84.766,77.05v-4.847c0-0.611-0.139-1.065-0.417-1.367c-0.278-0.301-0.713-0.451-1.306-0.451
				c-0.784,0-1.358,0.213-1.722,0.637c-0.365,0.424-0.547,1.123-0.547,2.098v3.931h-1.135v-7.491h0.923l0.184,1.024h0.055
				c0.233-0.369,0.559-0.654,0.978-0.857c0.419-0.202,0.886-0.305,1.401-0.305c0.902,0,1.581,0.219,2.037,0.653
				c0.456,0.435,0.684,1.131,0.684,2.088v4.888H84.766z"/>
		</g>
		<g>
			<path d="M91.926,77.187c-1.085,0-1.924-0.334-2.52-1.001c-0.593-0.668-0.891-1.613-0.891-2.834c0-1.253,0.302-2.223,0.905-2.905
				c0.605-0.684,1.465-1.026,2.581-1.026c0.361,0,0.72,0.039,1.08,0.117c0.361,0.077,0.643,0.168,0.848,0.273l-0.349,0.964
				c-0.251-0.101-0.524-0.185-0.82-0.25c-0.296-0.066-0.559-0.1-0.786-0.1c-1.523,0-2.283,0.972-2.283,2.912
				c0,0.921,0.185,1.627,0.557,2.12c0.371,0.492,0.921,0.738,1.651,0.738c0.624,0,1.264-0.134,1.921-0.404v1.005
				C93.319,77.057,92.687,77.187,91.926,77.187"/>
		</g>
		<g>
			<path d="M96.201,67.527c0-0.259,0.064-0.45,0.192-0.57c0.128-0.121,0.287-0.182,0.478-0.182c0.183,0,0.34,0.062,0.472,0.185
				c0.132,0.123,0.198,0.312,0.198,0.567c0,0.256-0.066,0.446-0.198,0.571c-0.132,0.126-0.289,0.188-0.472,0.188
				c-0.191,0-0.35-0.062-0.478-0.188C96.265,67.973,96.201,67.783,96.201,67.527 M97.432,77.05h-1.135v-7.491h1.135V77.05z"/>
		</g>
		<g>
			<path d="M105.664,77.05v-4.847c0-0.611-0.139-1.065-0.417-1.367c-0.278-0.301-0.713-0.451-1.306-0.451
				c-0.784,0-1.358,0.213-1.722,0.637c-0.365,0.424-0.547,1.123-0.547,2.098v3.931h-1.135v-7.491h0.923l0.184,1.024h0.055
				c0.233-0.369,0.559-0.654,0.978-0.857c0.419-0.202,0.886-0.305,1.401-0.305c0.902,0,1.581,0.219,2.037,0.653
				c0.456,0.435,0.684,1.131,0.684,2.088v4.888H105.664z"/>
		</g>
		<g>
			<path d="M115.961,69.558v0.717l-1.387,0.164c0.128,0.16,0.241,0.369,0.341,0.626c0.101,0.257,0.151,0.548,0.151,0.871
				c0,0.733-0.251,1.319-0.752,1.757s-1.19,0.657-2.065,0.657c-0.223,0-0.432-0.019-0.628-0.056
				c-0.484,0.255-0.725,0.577-0.725,0.964c0,0.205,0.084,0.356,0.253,0.454c0.169,0.099,0.458,0.147,0.868,0.147h1.326
				c0.812,0,1.435,0.171,1.869,0.513c0.436,0.342,0.654,0.838,0.654,1.49c0,0.83-0.333,1.462-0.998,1.896
				c-0.665,0.436-1.636,0.653-2.912,0.653c-0.98,0-1.736-0.182-2.267-0.547c-0.53-0.365-0.796-0.879-0.796-1.545
				c0-0.455,0.146-0.85,0.438-1.182c0.292-0.333,0.702-0.559,1.23-0.678c-0.191-0.087-0.353-0.221-0.481-0.402
				c-0.131-0.184-0.196-0.395-0.196-0.637c0-0.273,0.073-0.513,0.219-0.718c0.145-0.205,0.376-0.403,0.69-0.595
				c-0.387-0.159-0.703-0.43-0.946-0.813c-0.244-0.383-0.366-0.819-0.366-1.312c0-0.82,0.246-1.452,0.738-1.897
				c0.492-0.443,1.19-0.666,2.092-0.666c0.392,0,0.745,0.045,1.06,0.138H115.961z M109.988,78.308c0,0.404,0.171,0.713,0.512,0.922
				c0.342,0.21,0.832,0.314,1.47,0.314c0.952,0,1.657-0.143,2.116-0.427c0.457-0.285,0.687-0.671,0.687-1.159
				c0-0.406-0.125-0.687-0.376-0.844c-0.251-0.158-0.723-0.236-1.415-0.236h-1.36c-0.515,0-0.916,0.123-1.204,0.369
				S109.988,77.847,109.988,78.308 M110.603,71.957c0,0.524,0.148,0.92,0.444,1.189c0.296,0.269,0.709,0.403,1.238,0.403
				c1.107,0,1.661-0.537,1.661-1.613c0-1.125-0.561-1.688-1.682-1.688c-0.533,0-0.943,0.145-1.23,0.432
				C110.747,70.966,110.603,71.392,110.603,71.957"/>
		</g>
		<g>
			<polygon points="85.653,237.956 84.49,237.956 84.49,228.994 81.325,228.994 81.325,227.962 88.817,227.962 88.817,228.994 
				85.653,228.994 			"/>
		</g>
		<g>
			<path d="M90.755,228.434c0-0.261,0.063-0.451,0.191-0.571c0.128-0.121,0.288-0.181,0.479-0.181c0.183,0,0.34,0.061,0.472,0.184
				c0.131,0.123,0.198,0.313,0.198,0.568s-0.067,0.444-0.198,0.57c-0.132,0.125-0.289,0.188-0.472,0.188
				c-0.191,0-0.351-0.062-0.479-0.188C90.818,228.879,90.755,228.689,90.755,228.434 M91.985,237.956H90.85v-7.491h1.135V237.956z"
				/>
		</g>
		<g>
			<path d="M104.642,237.956v-4.874c0-0.597-0.128-1.045-0.383-1.343c-0.255-0.299-0.651-0.448-1.189-0.448
				c-0.706,0-1.229,0.203-1.566,0.608c-0.337,0.407-0.506,1.031-0.506,1.873v4.184h-1.134v-4.874c0-0.597-0.128-1.045-0.383-1.343
				c-0.255-0.299-0.654-0.448-1.196-0.448c-0.711,0-1.232,0.214-1.562,0.642c-0.331,0.425-0.496,1.124-0.496,2.094v3.931h-1.135
				v-7.491h0.923l0.185,1.024h0.054c0.214-0.364,0.516-0.648,0.907-0.854c0.388-0.205,0.825-0.31,1.308-0.31
				c1.171,0,1.937,0.425,2.297,1.272h0.055c0.223-0.394,0.547-0.702,0.97-0.931c0.424-0.229,0.908-0.343,1.45-0.343
				c0.847,0,1.482,0.219,1.904,0.653c0.421,0.435,0.632,1.131,0.632,2.088v4.888L104.642,237.956L104.642,237.956z"/>
		</g>
		<g>
			<path d="M111.98,238.092c-1.108,0-1.982-0.336-2.622-1.011c-0.64-0.674-0.96-1.61-0.96-2.811c0-1.207,0.297-2.167,0.891-2.878
				c0.596-0.711,1.394-1.065,2.397-1.065c0.938,0,1.681,0.308,2.228,0.927c0.547,0.617,0.821,1.432,0.821,2.443v0.718h-5.162
				c0.023,0.88,0.245,1.548,0.667,2.003c0.421,0.456,1.015,0.684,1.781,0.684c0.806,0,1.604-0.168,2.392-0.507v1.013
				c-0.401,0.175-0.78,0.299-1.137,0.373C112.917,238.055,112.485,238.092,111.98,238.092 M111.672,231.277
				c-0.602,0-1.081,0.196-1.439,0.589c-0.358,0.392-0.569,0.934-0.632,1.627h3.917c0-0.716-0.159-1.265-0.479-1.645
				C112.72,231.467,112.265,231.277,111.672,231.277"/>
		</g>
		<g>
			<path d="M57.61,253.956l-3.391-8.857h-0.054c0.064,0.701,0.095,1.535,0.095,2.502v6.355h-1.073v-9.993h1.75l3.165,8.243h0.055
				l3.192-8.243h1.737v9.993h-1.163v-6.438c0-0.739,0.032-1.54,0.096-2.407h-0.055l-3.417,8.846L57.61,253.956L57.61,253.956z"/>
		</g>
		<g>
			<path d="M70.963,253.957l-0.225-1.066h-0.055c-0.373,0.47-0.746,0.787-1.117,0.953c-0.372,0.167-0.835,0.25-1.392,0.25
				c-0.742,0-1.325-0.191-1.746-0.574c-0.422-0.384-0.632-0.927-0.632-1.634c0-1.513,1.209-2.306,3.629-2.379l1.272-0.041V249
				c0-0.588-0.127-1.021-0.38-1.303c-0.252-0.279-0.657-0.421-1.213-0.421c-0.624,0-1.33,0.191-2.119,0.574l-0.349-0.868
				c0.369-0.2,0.774-0.356,1.214-0.473c0.44-0.112,0.881-0.17,1.322-0.17c0.894,0,1.556,0.198,1.986,0.595
				c0.431,0.396,0.646,1.032,0.646,1.907v5.113h-0.841V253.957z M68.4,253.156c0.707,0,1.261-0.192,1.665-0.581
				c0.403-0.387,0.605-0.93,0.605-1.627v-0.677l-1.135,0.048c-0.903,0.032-1.553,0.172-1.952,0.421
				c-0.399,0.248-0.598,0.636-0.598,1.158c0,0.41,0.124,0.724,0.373,0.938C67.606,253.05,67.954,253.156,68.4,253.156"/>
		</g>
		<g>
			<path d="M79.969,253.956v-4.847c0-0.61-0.139-1.065-0.417-1.367c-0.278-0.301-0.713-0.451-1.306-0.451
				c-0.783,0-1.358,0.213-1.722,0.637c-0.365,0.425-0.547,1.124-0.547,2.099v3.931h-1.135v-7.491h0.923l0.184,1.024h0.055
				c0.233-0.369,0.558-0.655,0.978-0.856c0.419-0.202,0.886-0.306,1.401-0.306c0.902,0,1.582,0.219,2.037,0.653
				c0.456,0.435,0.684,1.131,0.684,2.088v4.888L79.969,253.956L79.969,253.956z"/>
		</g>
		<g>
			<path d="M88.743,253.957l-0.226-1.066h-0.055c-0.373,0.47-0.746,0.787-1.117,0.953c-0.371,0.167-0.836,0.25-1.391,0.25
				c-0.743,0-1.325-0.191-1.747-0.574c-0.421-0.384-0.632-0.927-0.632-1.634c0-1.513,1.21-2.306,3.629-2.379l1.272-0.041V249
				c0-0.588-0.125-1.021-0.379-1.303c-0.252-0.279-0.658-0.421-1.213-0.421c-0.625,0-1.331,0.191-2.12,0.574l-0.348-0.868
				c0.369-0.2,0.773-0.356,1.213-0.473c0.441-0.112,0.88-0.17,1.323-0.17c0.893,0,1.555,0.198,1.987,0.595
				c0.429,0.396,0.644,1.032,0.644,1.907v5.113h-0.84V253.957z M86.179,253.156c0.707,0,1.262-0.192,1.666-0.581
				c0.402-0.387,0.604-0.93,0.604-1.627v-0.677l-1.135,0.048c-0.903,0.032-1.553,0.172-1.951,0.421
				c-0.399,0.248-0.599,0.636-0.599,1.158c0,0.41,0.124,0.724,0.373,0.938S85.733,253.156,86.179,253.156"/>
		</g>
		<g>
			<path d="M98.753,246.464v0.718l-1.387,0.164c0.128,0.16,0.241,0.368,0.341,0.626c0.101,0.257,0.151,0.548,0.151,0.87
				c0,0.735-0.251,1.32-0.752,1.758s-1.19,0.656-2.065,0.656c-0.223,0-0.432-0.019-0.628-0.055
				c-0.484,0.256-0.725,0.576-0.725,0.964c0,0.205,0.084,0.355,0.253,0.455c0.169,0.097,0.458,0.146,0.868,0.146h1.326
				c0.812,0,1.435,0.171,1.869,0.513c0.436,0.343,0.654,0.84,0.654,1.49c0,0.83-0.333,1.462-0.998,1.897
				c-0.665,0.435-1.636,0.651-2.912,0.651c-0.98,0-1.736-0.182-2.267-0.547c-0.53-0.363-0.796-0.879-0.796-1.545
				c0-0.455,0.146-0.85,0.438-1.183c0.292-0.332,0.702-0.559,1.23-0.677c-0.191-0.086-0.353-0.222-0.481-0.403
				c-0.131-0.182-0.196-0.395-0.196-0.636c0-0.273,0.073-0.514,0.219-0.719c0.145-0.204,0.376-0.402,0.69-0.595
				c-0.387-0.159-0.703-0.431-0.946-0.812c-0.244-0.384-0.366-0.82-0.366-1.312c0-0.82,0.246-1.452,0.738-1.896
				c0.492-0.444,1.19-0.667,2.092-0.667c0.392,0,0.745,0.046,1.06,0.137L98.753,246.464L98.753,246.464z M92.779,255.214
				c0,0.406,0.171,0.713,0.512,0.923c0.342,0.21,0.832,0.314,1.47,0.314c0.952,0,1.657-0.144,2.116-0.428
				c0.457-0.284,0.687-0.671,0.687-1.158c0-0.405-0.125-0.688-0.376-0.845s-0.723-0.235-1.415-0.235h-1.36
				c-0.515,0-0.916,0.123-1.204,0.368C92.922,254.4,92.779,254.754,92.779,255.214 M93.394,248.863c0,0.524,0.148,0.922,0.444,1.188
				c0.296,0.271,0.709,0.404,1.238,0.404c1.107,0,1.661-0.537,1.661-1.614c0-1.125-0.561-1.688-1.682-1.688
				c-0.533,0-0.943,0.145-1.23,0.432C93.538,247.873,93.394,248.299,93.394,248.863"/>
		</g>
		<g>
			<path d="M104.157,254.092c-1.108,0-1.982-0.336-2.622-1.011c-0.64-0.674-0.96-1.61-0.96-2.811c0-1.207,0.297-2.167,0.891-2.878
				c0.596-0.711,1.394-1.065,2.397-1.065c0.938,0,1.681,0.308,2.228,0.927c0.547,0.617,0.821,1.432,0.821,2.443v0.718h-5.162
				c0.023,0.88,0.245,1.548,0.667,2.003c0.421,0.456,1.015,0.684,1.781,0.684c0.806,0,1.604-0.168,2.392-0.507v1.013
				c-0.401,0.175-0.78,0.299-1.137,0.373C105.094,254.055,104.662,254.092,104.157,254.092 M103.849,247.277
				c-0.602,0-1.081,0.196-1.439,0.589c-0.358,0.392-0.569,0.934-0.632,1.627h3.917c0-0.716-0.159-1.265-0.479-1.645
				C104.896,247.467,104.442,247.277,103.849,247.277"/>
		</g>
		<g>
			<path d="M119.096,253.956v-4.874c0-0.597-0.128-1.045-0.383-1.343c-0.255-0.299-0.651-0.448-1.189-0.448
				c-0.706,0-1.229,0.203-1.566,0.608c-0.337,0.407-0.506,1.031-0.506,1.873v4.184h-1.134v-4.874c0-0.597-0.128-1.045-0.383-1.343
				c-0.255-0.299-0.654-0.448-1.196-0.448c-0.711,0-1.232,0.214-1.562,0.642c-0.331,0.425-0.496,1.124-0.496,2.094v3.931h-1.135
				v-7.491h0.923l0.185,1.024h0.054c0.214-0.364,0.516-0.648,0.907-0.854c0.388-0.205,0.825-0.31,1.308-0.31
				c1.171,0,1.937,0.425,2.297,1.272h0.055c0.223-0.394,0.547-0.702,0.97-0.931c0.424-0.229,0.908-0.343,1.45-0.343
				c0.847,0,1.482,0.219,1.904,0.653c0.421,0.435,0.632,1.131,0.632,2.088v4.888L119.096,253.956L119.096,253.956z"/>
		</g>
		<g>
			<path d="M126.434,254.092c-1.108,0-1.982-0.336-2.622-1.011c-0.64-0.674-0.96-1.61-0.96-2.811c0-1.207,0.297-2.167,0.891-2.878
				c0.596-0.711,1.394-1.065,2.397-1.065c0.938,0,1.681,0.308,2.228,0.927c0.547,0.617,0.821,1.432,0.821,2.443v0.718h-5.162
				c0.023,0.88,0.245,1.548,0.667,2.003c0.421,0.456,1.015,0.684,1.781,0.684c0.806,0,1.604-0.168,2.392-0.507v1.013
				c-0.401,0.175-0.78,0.299-1.137,0.373C127.371,254.055,126.939,254.092,126.434,254.092 M126.126,247.277
				c-0.602,0-1.081,0.196-1.439,0.589c-0.358,0.392-0.569,0.934-0.632,1.627h3.917c0-0.716-0.159-1.265-0.479-1.645
				C127.174,247.467,126.719,247.277,126.126,247.277"/>
		</g>
		<g>
			<path d="M136.949,253.956v-4.847c0-0.61-0.139-1.065-0.417-1.367c-0.278-0.301-0.713-0.451-1.306-0.451
				c-0.784,0-1.358,0.213-1.722,0.637c-0.365,0.425-0.547,1.124-0.547,2.099v3.931h-1.135v-7.491h0.923l0.184,1.024h0.055
				c0.233-0.369,0.559-0.655,0.978-0.856c0.419-0.202,0.886-0.306,1.401-0.306c0.902,0,1.581,0.219,2.037,0.653
				c0.456,0.434,0.684,1.131,0.684,2.088v4.888L136.949,253.956L136.949,253.956z"/>
		</g>
		<g>
			<path d="M143.535,253.156c0.2,0,0.395-0.015,0.581-0.044c0.187-0.029,0.335-0.061,0.444-0.093v0.868
				c-0.123,0.06-0.304,0.108-0.543,0.147c-0.24,0.037-0.455,0.058-0.646,0.058c-1.449,0-2.174-0.763-2.174-2.291v-4.457h-1.073
				v-0.546l1.073-0.472l0.479-1.601h0.656v1.736h2.174v0.881h-2.174v4.41c0,0.451,0.107,0.797,0.321,1.039
				C142.867,253.035,143.161,253.156,143.535,253.156"/>
		</g>
		<g>
			<polygon points="448.947,123.989 443.375,123.989 443.375,113.995 448.947,113.995 448.947,115.027 444.537,115.027 
				444.537,118.247 448.679,118.247 448.679,119.272 444.537,119.272 444.537,122.95 448.947,122.95 			"/>
		</g>
		<g>
			<path d="M461.24,123.989v-4.874c0-0.597-0.127-1.045-0.383-1.343c-0.256-0.299-0.652-0.448-1.189-0.448
				c-0.707,0-1.229,0.203-1.564,0.608c-0.338,0.405-0.506,1.029-0.506,1.873v4.184h-1.135v-4.874c0-0.597-0.129-1.045-0.383-1.343
				c-0.256-0.299-0.654-0.448-1.195-0.448c-0.713,0-1.232,0.213-1.562,0.639c-0.33,0.427-0.496,1.125-0.496,2.096v3.931h-1.135
				v-7.492h0.924l0.186,1.025h0.053c0.215-0.365,0.518-0.649,0.906-0.854c0.391-0.205,0.826-0.308,1.311-0.308
				c1.17,0,1.936,0.424,2.297,1.271h0.055c0.223-0.393,0.547-0.701,0.971-0.93c0.424-0.228,0.906-0.342,1.449-0.342
				c0.848,0,1.482,0.218,1.902,0.653c0.422,0.435,0.633,1.131,0.633,2.088v4.888H461.24z"/>
		</g>
		<g>
			<path d="M468.898,124.126c-0.486,0-0.934-0.09-1.336-0.27c-0.402-0.181-0.742-0.457-1.016-0.831h-0.082
				c0.055,0.438,0.082,0.852,0.082,1.244v3.083h-1.135v-10.855h0.924l0.156,1.025h0.055c0.291-0.41,0.631-0.706,1.02-0.889
				c0.387-0.183,0.832-0.273,1.332-0.273c0.994,0,1.762,0.339,2.301,1.019c0.541,0.68,0.811,1.631,0.811,2.857
				c0,1.23-0.273,2.187-0.824,2.868C470.636,123.785,469.875,124.126,468.898,124.126 M468.734,117.324
				c-0.766,0-1.318,0.212-1.66,0.636s-0.518,1.099-0.527,2.023v0.253c0,1.053,0.176,1.806,0.527,2.259
				c0.352,0.454,0.914,0.681,1.688,0.681c0.646,0,1.154-0.263,1.521-0.786c0.365-0.523,0.551-1.246,0.551-2.167
				c0-0.935-0.186-1.65-0.551-2.149C469.916,117.574,469.4,117.324,468.734,117.324"/>
		</g>
		<g>
			<path d="M479.298,123.989l-0.225-1.067h-0.057c-0.373,0.471-0.744,0.788-1.117,0.954c-0.371,0.167-0.834,0.25-1.391,0.25
				c-0.744,0-1.326-0.191-1.746-0.575c-0.422-0.383-0.633-0.927-0.633-1.633c0-1.514,1.209-2.307,3.629-2.379l1.271-0.041v-0.465
				c0-0.588-0.125-1.022-0.379-1.302c-0.252-0.281-0.658-0.421-1.215-0.421c-0.623,0-1.33,0.191-2.117,0.573l-0.35-0.867
				c0.369-0.201,0.773-0.358,1.213-0.473c0.439-0.112,0.881-0.17,1.322-0.17c0.895,0,1.555,0.198,1.986,0.594
				c0.43,0.397,0.646,1.033,0.646,1.908v5.113H479.298z M476.736,123.189c0.705,0,1.26-0.194,1.664-0.581
				c0.402-0.387,0.605-0.93,0.605-1.627v-0.677l-1.137,0.048c-0.902,0.031-1.553,0.172-1.951,0.42
				c-0.398,0.249-0.598,0.635-0.598,1.159c0,0.409,0.123,0.722,0.373,0.937C475.941,123.083,476.289,123.189,476.736,123.189"/>
		</g>
		<g>
			<path d="M485.597,123.189c0.201,0,0.396-0.016,0.582-0.044c0.188-0.03,0.334-0.062,0.443-0.094v0.868
				c-0.123,0.061-0.305,0.109-0.543,0.147c-0.24,0.039-0.455,0.059-0.646,0.059c-1.447,0-2.174-0.764-2.174-2.291v-4.457h-1.072
				v-0.546l1.072-0.472l0.48-1.601h0.654v1.737h2.174v0.881h-2.174v4.41c0,0.451,0.107,0.797,0.32,1.039
				C484.929,123.068,485.224,123.189,485.597,123.189"/>
		</g>
		<g>
			<path d="M493.947,123.989v-4.847c0-0.611-0.141-1.066-0.418-1.367s-0.713-0.451-1.307-0.451c-0.787,0-1.361,0.214-1.727,0.643
				c-0.361,0.429-0.543,1.131-0.543,2.105v3.917h-1.135v-10.637h1.135v3.22c0,0.387-0.02,0.709-0.055,0.964h0.068
				c0.225-0.36,0.541-0.644,0.953-0.851c0.412-0.208,0.883-0.312,1.412-0.312c0.916,0,1.604,0.218,2.061,0.653
				c0.459,0.435,0.688,1.127,0.688,2.074v4.888H493.947z"/>
		</g>
		<g>
			<path d="M496.923,116.497h1.217l1.641,4.272c0.359,0.976,0.584,1.68,0.67,2.112h0.055c0.062-0.232,0.186-0.63,0.373-1.192
				c0.189-0.563,0.809-2.294,1.857-5.192h1.215l-3.219,8.531c-0.32,0.844-0.691,1.442-1.119,1.795
				c-0.426,0.353-0.947,0.529-1.568,0.529c-0.346,0-0.688-0.038-1.025-0.116v-0.909c0.252,0.055,0.531,0.082,0.844,0.082
				c0.777,0,1.334-0.437,1.666-1.312l0.418-1.067L496.923,116.497z"/>
		</g>
		<g>
			<path d="M513.582,117.379h-1.908v6.61h-1.135v-6.61h-1.34v-0.513l1.34-0.41v-0.417c0-1.841,0.805-2.762,2.414-2.762
				c0.396,0,0.859,0.08,1.395,0.24l-0.295,0.908c-0.438-0.141-0.811-0.212-1.121-0.212c-0.428,0-0.744,0.144-0.949,0.428
				s-0.309,0.741-0.309,1.371v0.484h1.908V117.379z"/>
		</g>
		<g>
			<path d="M522.115,120.236c0,1.221-0.309,2.175-0.922,2.861c-0.615,0.686-1.467,1.028-2.551,1.028
				c-0.67,0-1.266-0.158-1.783-0.472c-0.52-0.314-0.922-0.766-1.203-1.354c-0.283-0.587-0.424-1.274-0.424-2.063
				c0-1.221,0.305-2.173,0.916-2.854c0.609-0.681,1.457-1.021,2.543-1.021c1.047,0,1.881,0.349,2.498,1.046
				C521.806,118.104,522.115,119.047,522.115,120.236 M516.408,120.236c0,0.957,0.189,1.686,0.572,2.188
				c0.385,0.501,0.947,0.751,1.689,0.751s1.307-0.249,1.691-0.748c0.385-0.498,0.576-1.229,0.576-2.19
				c0-0.953-0.191-1.676-0.576-2.17c-0.387-0.495-0.953-0.742-1.705-0.742c-0.744,0-1.305,0.244-1.684,0.731
				C516.597,118.543,516.408,119.271,516.408,120.236"/>
		</g>
		<g>
			<path d="M528.222,116.36c0.332,0,0.631,0.027,0.896,0.082l-0.158,1.053c-0.311-0.069-0.584-0.103-0.82-0.103
				c-0.605,0-1.125,0.246-1.555,0.738c-0.432,0.492-0.646,1.104-0.646,1.838v4.021h-1.135v-7.492h0.938l0.129,1.387h0.055
				c0.279-0.486,0.613-0.862,1.006-1.128C527.322,116.492,527.751,116.36,528.222,116.36"/>
		</g>
		<g>
			<path d="M459.097,139.189c0.201,0,0.396-0.016,0.582-0.044c0.188-0.029,0.334-0.062,0.443-0.094v0.868
				c-0.123,0.061-0.303,0.109-0.543,0.147c-0.238,0.038-0.455,0.059-0.646,0.059c-1.447,0-2.174-0.764-2.174-2.291v-4.457h-1.072
				v-0.546l1.072-0.472l0.48-1.601h0.654v1.737h2.174v0.881h-2.174v4.41c0,0.451,0.107,0.797,0.32,1.039
				C458.431,139.069,458.724,139.189,459.097,139.189"/>
		</g>
		<g>
			<path d="M467.447,139.989v-4.847c0-0.611-0.139-1.066-0.416-1.367s-0.713-0.451-1.307-0.451c-0.789,0-1.363,0.214-1.727,0.643
				c-0.361,0.429-0.543,1.131-0.543,2.105v3.917h-1.135v-10.637h1.135v3.22c0,0.387-0.02,0.709-0.055,0.964h0.066
				c0.225-0.36,0.541-0.644,0.955-0.851c0.412-0.208,0.883-0.312,1.41-0.312c0.916,0,1.604,0.218,2.062,0.653
				c0.457,0.435,0.688,1.127,0.688,2.074v4.888H467.447z"/>
		</g>
		<g>
			<path d="M474.779,140.125c-1.107,0-1.982-0.337-2.621-1.011c-0.643-0.675-0.961-1.611-0.961-2.81
				c0-1.207,0.297-2.167,0.891-2.879c0.596-0.711,1.395-1.065,2.396-1.065c0.939,0,1.682,0.308,2.229,0.926s0.822,1.432,0.822,2.444
				v0.718h-5.162c0.021,0.879,0.244,1.547,0.666,2.003c0.422,0.455,1.016,0.683,1.781,0.683c0.807,0,1.604-0.168,2.393-0.506v1.013
				c-0.402,0.174-0.781,0.297-1.137,0.373C475.716,140.088,475.285,140.125,474.779,140.125 M474.47,133.311
				c-0.602,0-1.08,0.195-1.438,0.588c-0.359,0.392-0.57,0.934-0.633,1.627h3.916c0-0.715-0.158-1.264-0.48-1.645
				C475.519,133.5,475.062,133.311,474.47,133.311"/>
		</g>
		<g>
			<path d="M492.222,129.995v6.467c0,1.14-0.344,2.034-1.031,2.687c-0.689,0.651-1.635,0.979-2.838,0.979s-2.135-0.328-2.793-0.984
				s-0.986-1.559-0.986-2.707v-6.439h1.162v6.521c0,0.834,0.227,1.475,0.684,1.921c0.455,0.446,1.125,0.67,2.01,0.67
				c0.842,0,1.492-0.225,1.947-0.673c0.457-0.449,0.684-1.094,0.684-1.932v-6.508L492.222,129.995L492.222,129.995z"/>
		</g>
		<g>
			<path d="M500.228,137.945c0,0.697-0.26,1.235-0.777,1.613c-0.521,0.379-1.25,0.567-2.189,0.567c-0.992,0-1.768-0.158-2.322-0.473
				V138.6c0.359,0.183,0.744,0.325,1.158,0.432c0.412,0.104,0.811,0.156,1.193,0.156c0.592,0,1.047-0.096,1.365-0.283
				c0.318-0.189,0.479-0.479,0.479-0.864c0-0.292-0.125-0.541-0.379-0.749c-0.252-0.207-0.746-0.452-1.479-0.734
				c-0.697-0.26-1.193-0.486-1.486-0.681c-0.293-0.193-0.514-0.413-0.658-0.66c-0.143-0.245-0.215-0.539-0.215-0.881
				c0-0.61,0.25-1.093,0.746-1.445c0.496-0.354,1.178-0.53,2.045-0.53c0.805,0,1.594,0.164,2.363,0.492l-0.402,0.923
				c-0.752-0.311-1.434-0.465-2.043-0.465c-0.539,0-0.945,0.085-1.219,0.253c-0.273,0.169-0.408,0.4-0.408,0.697
				c0,0.2,0.049,0.371,0.152,0.513c0.102,0.141,0.268,0.275,0.496,0.403s0.664,0.312,1.311,0.554
				c0.889,0.324,1.49,0.649,1.803,0.978S500.228,137.448,500.228,137.945"/>
		</g>
		<g>
			<path d="M505.941,140.125c-1.107,0-1.982-0.337-2.621-1.011c-0.643-0.675-0.961-1.611-0.961-2.81
				c0-1.207,0.297-2.167,0.891-2.879c0.596-0.711,1.395-1.065,2.396-1.065c0.938,0,1.682,0.308,2.229,0.926s0.822,1.432,0.822,2.444
				v0.718h-5.162c0.021,0.879,0.244,1.547,0.666,2.003c0.422,0.455,1.016,0.683,1.781,0.683c0.807,0,1.604-0.168,2.393-0.506v1.013
				c-0.402,0.174-0.781,0.297-1.137,0.373C506.878,140.088,506.447,140.125,505.941,140.125 M505.632,133.311
				c-0.602,0-1.08,0.195-1.438,0.588c-0.357,0.392-0.568,0.934-0.633,1.627h3.916c0-0.715-0.156-1.264-0.479-1.645
				C506.681,133.5,506.226,133.311,505.632,133.311"/>
		</g>
		<g>
			<path d="M514.748,132.36c0.334,0,0.631,0.027,0.896,0.082l-0.158,1.053c-0.311-0.069-0.582-0.103-0.82-0.103
				c-0.605,0-1.125,0.246-1.555,0.738c-0.432,0.492-0.646,1.104-0.646,1.838v4.021h-1.135v-7.493h0.938l0.129,1.387h0.057
				c0.277-0.486,0.611-0.862,1.004-1.128C513.849,132.492,514.279,132.36,514.748,132.36"/>
		</g>
		<g>
			<path d="M453.232,189.189h-1.326l-5.461-8.389h-0.057c0.074,0.985,0.111,1.888,0.111,2.707v5.682h-1.074v-9.993h1.312
				l5.447,8.353h0.055c-0.008-0.123-0.029-0.518-0.062-1.186c-0.031-0.667-0.043-1.146-0.033-1.433v-5.734h1.088V189.189
				L453.232,189.189z"/>
		</g>
		<g>
			<path d="M462.976,185.436c0,1.222-0.307,2.176-0.922,2.86c-0.615,0.688-1.465,1.029-2.551,1.029c-0.67,0-1.264-0.158-1.783-0.473
				c-0.52-0.313-0.92-0.767-1.203-1.354c-0.281-0.587-0.424-1.274-0.424-2.063c0-1.222,0.307-2.173,0.916-2.854
				c0.611-0.681,1.459-1.021,2.543-1.021c1.049,0,1.881,0.35,2.498,1.047C462.667,183.302,462.976,184.248,462.976,185.436
				 M457.269,185.436c0,0.957,0.191,1.687,0.574,2.188s0.947,0.751,1.688,0.751c0.744,0,1.307-0.249,1.691-0.748
				c0.387-0.499,0.578-1.229,0.578-2.19c0-0.952-0.191-1.677-0.578-2.17c-0.385-0.495-0.953-0.741-1.705-0.741
				c-0.742,0-1.303,0.243-1.682,0.729C457.458,183.744,457.269,184.47,457.269,185.436"/>
		</g>
		<g>
			<path d="M470.792,189.189v-4.848c0-0.61-0.139-1.064-0.416-1.366c-0.279-0.302-0.715-0.451-1.307-0.451
				c-0.783,0-1.357,0.213-1.723,0.637s-0.547,1.123-0.547,2.098v3.932h-1.135v-7.491h0.922l0.186,1.024h0.055
				c0.232-0.369,0.559-0.654,0.979-0.857c0.418-0.202,0.887-0.305,1.4-0.305c0.902,0,1.582,0.219,2.037,0.652
				c0.457,0.436,0.684,1.132,0.684,2.088v4.889L470.792,189.189L470.792,189.189z"/>
		</g>
		<g>
			<rect x="474.33" y="184.917" width="3.354" height="1.039"/>
		</g>
		<g>
			<path d="M486.042,179.195h1.25l-3.602,9.994h-1.148l-3.582-9.994h1.23l2.297,6.468c0.264,0.741,0.473,1.465,0.629,2.167
				c0.164-0.738,0.377-1.475,0.643-2.208L486.042,179.195z"/>
		</g>
		<g>
			<path d="M492.361,189.326c-1.107,0-1.98-0.337-2.621-1.011c-0.641-0.675-0.961-1.611-0.961-2.812
				c0-1.207,0.299-2.167,0.893-2.878c0.596-0.711,1.395-1.064,2.396-1.064c0.938,0,1.682,0.308,2.229,0.926s0.82,1.432,0.82,2.444
				v0.718h-5.162c0.021,0.879,0.246,1.547,0.668,2.003c0.42,0.455,1.014,0.683,1.779,0.683c0.807,0,1.604-0.168,2.393-0.506v1.012
				c-0.4,0.175-0.779,0.298-1.137,0.373C493.298,189.289,492.867,189.326,492.361,189.326 M492.054,182.51
				c-0.602,0-1.082,0.196-1.438,0.59c-0.359,0.392-0.57,0.934-0.633,1.627h3.916c0-0.717-0.158-1.266-0.479-1.646
				S492.646,182.51,492.054,182.51"/>
		</g>
		<g>
			<path d="M501.169,181.56c0.332,0,0.631,0.026,0.896,0.082l-0.158,1.054c-0.311-0.069-0.584-0.104-0.82-0.104
				c-0.605,0-1.125,0.246-1.555,0.739c-0.432,0.492-0.646,1.104-0.646,1.838v4.021h-1.135v-7.492h0.938l0.129,1.387h0.055
				c0.279-0.486,0.613-0.862,1.006-1.128C500.269,181.693,500.699,181.56,501.169,181.56"/>
		</g>
		<g>
			<path d="M507.652,181.575c0.984,0,1.75,0.336,2.293,1.008c0.545,0.672,0.816,1.624,0.816,2.854s-0.273,2.188-0.822,2.868
				c-0.551,0.682-1.312,1.021-2.287,1.021c-0.486,0-0.934-0.09-1.336-0.271c-0.404-0.181-0.742-0.457-1.016-0.831h-0.082
				l-0.24,0.964h-0.812v-10.638h1.135v2.585c0,0.578-0.018,1.099-0.055,1.56h0.055C505.83,181.948,506.613,181.575,507.652,181.575
				 M507.488,182.524c-0.773,0-1.332,0.223-1.674,0.667c-0.344,0.443-0.514,1.191-0.514,2.245s0.176,1.807,0.525,2.26
				s0.914,0.681,1.688,0.681c0.697,0,1.219-0.254,1.561-0.763s0.514-1.238,0.514-2.191c0-0.975-0.172-1.701-0.514-2.18
				C508.732,182.763,508.205,182.524,507.488,182.524"/>
		</g>
		<g>
			<path d="M518.052,189.19l-0.227-1.067h-0.055c-0.375,0.47-0.746,0.788-1.117,0.954c-0.371,0.167-0.836,0.25-1.393,0.25
				c-0.742,0-1.324-0.192-1.746-0.575s-0.631-0.927-0.631-1.633c0-1.514,1.209-2.307,3.629-2.379l1.271-0.041v-0.465
				c0-0.588-0.127-1.022-0.381-1.303c-0.252-0.28-0.656-0.422-1.213-0.422c-0.623,0-1.33,0.192-2.119,0.574l-0.35-0.868
				c0.369-0.2,0.773-0.356,1.215-0.472c0.439-0.113,0.881-0.17,1.322-0.17c0.895,0,1.555,0.198,1.986,0.594
				c0.43,0.397,0.645,1.033,0.645,1.908v5.113L518.052,189.19L518.052,189.19z M515.488,188.389c0.707,0,1.262-0.193,1.666-0.581
				c0.4-0.388,0.604-0.931,0.604-1.627v-0.678l-1.135,0.048c-0.902,0.032-1.553,0.173-1.951,0.421c-0.4,0.249-0.6,0.636-0.6,1.158
				c0,0.41,0.125,0.724,0.373,0.938C514.695,188.283,515.042,188.389,515.488,188.389"/>
		</g>
		<g>
			<rect x="521.931" y="178.552" width="1.137" height="10.638"/>
		</g>
		<g>
			<polygon points="50.414,129.492 49.251,129.492 49.251,119.498 54.823,119.498 54.823,120.53 50.414,120.53 50.414,124.187 
				54.557,124.187 54.557,125.22 50.414,125.22 			"/>
		</g>
		<g>
			<path d="M56.911,119.969c0-0.26,0.063-0.449,0.191-0.57c0.128-0.12,0.287-0.182,0.479-0.182c0.182,0,0.34,0.062,0.471,0.186
				c0.132,0.123,0.199,0.312,0.199,0.566c0,0.257-0.067,0.446-0.199,0.571c-0.131,0.126-0.289,0.188-0.471,0.188
				c-0.192,0-0.351-0.062-0.479-0.188C56.974,120.415,56.911,120.225,56.911,119.969 M58.141,129.492h-1.135V122h1.135V129.492z"/>
		</g>
		<g>
			<rect x="61.247" y="118.855" width="1.135" height="10.637"/>
		</g>
		<g>
			<path d="M68.653,129.628c-1.108,0-1.982-0.337-2.622-1.011c-0.64-0.675-0.96-1.611-0.96-2.81c0-1.207,0.297-2.167,0.891-2.878
				c0.596-0.712,1.394-1.066,2.397-1.066c0.938,0,1.681,0.308,2.228,0.926s0.821,1.433,0.821,2.444v0.718h-5.162
				c0.023,0.879,0.245,1.547,0.667,2.003c0.421,0.455,1.015,0.684,1.781,0.684c0.806,0,1.604-0.169,2.392-0.507v1.013
				c-0.401,0.173-0.78,0.297-1.137,0.373C69.59,129.591,69.158,129.628,68.653,129.628 M68.345,122.813
				c-0.602,0-1.081,0.195-1.439,0.588c-0.358,0.392-0.569,0.934-0.632,1.627h3.917c0-0.715-0.159-1.264-0.479-1.645
				C69.393,123.003,68.938,122.813,68.345,122.813"/>
		</g>
		<g>
			<path d="M18.55,145.492h-1.326l-5.462-8.388h-0.055c0.073,0.984,0.11,1.887,0.11,2.708v5.681h-1.074v-9.994h1.313l5.448,8.354
				h0.055c-0.009-0.123-0.03-0.52-0.062-1.188c-0.031-0.667-0.043-1.145-0.034-1.432v-5.735h1.087V145.492z"/>
		</g>
		<g>
			<path d="M28.294,141.739c0,1.221-0.308,2.175-0.923,2.861c-0.615,0.686-1.465,1.027-2.55,1.027c-0.67,0-1.264-0.156-1.784-0.472
				c-0.519-0.313-0.92-0.766-1.203-1.354c-0.283-0.588-0.424-1.274-0.424-2.063c0-1.221,0.305-2.173,0.916-2.854
				c0.611-0.682,1.459-1.021,2.543-1.021c1.049,0,1.881,0.349,2.499,1.046C27.985,139.606,28.294,140.549,28.294,141.739
				 M22.586,141.739c0,0.957,0.191,1.686,0.574,2.188c0.383,0.502,0.946,0.752,1.689,0.752c0.742,0,1.306-0.249,1.692-0.748
				c0.385-0.499,0.577-1.23,0.577-2.191c0-0.953-0.192-1.676-0.577-2.17c-0.386-0.495-0.954-0.742-1.706-0.742
				c-0.743,0-1.303,0.244-1.682,0.731C22.775,140.045,22.586,140.773,22.586,141.739"/>
		</g>
		<g>
			<path d="M40.533,145.492v-4.874c0-0.597-0.127-1.045-0.383-1.343c-0.255-0.299-0.652-0.448-1.189-0.448
				c-0.707,0-1.228,0.203-1.566,0.608c-0.337,0.404-0.506,1.028-0.506,1.873v4.184h-1.134v-4.874c0-0.597-0.128-1.045-0.383-1.343
				c-0.256-0.299-0.654-0.448-1.196-0.448c-0.711,0-1.232,0.213-1.562,0.639c-0.331,0.428-0.496,1.125-0.496,2.097v3.931h-1.135V138
				h0.923l0.185,1.025h0.054c0.215-0.365,0.516-0.649,0.906-0.854c0.39-0.205,0.826-0.308,1.309-0.308
				c1.172,0,1.937,0.424,2.297,1.271h0.055c0.223-0.393,0.547-0.7,0.97-0.93c0.424-0.228,0.907-0.342,1.45-0.342
				c0.847,0,1.482,0.218,1.903,0.653c0.422,0.435,0.633,1.131,0.633,2.088v4.888L40.533,145.492L40.533,145.492z"/>
		</g>
		<g>
			<path d="M47.871,145.628c-1.107,0-1.981-0.338-2.621-1.012c-0.641-0.675-0.961-1.61-0.961-2.81c0-1.207,0.297-2.167,0.892-2.878
				c0.595-0.712,1.394-1.066,2.397-1.066c0.937,0,1.681,0.309,2.228,0.926c0.547,0.618,0.821,1.434,0.821,2.444v0.718h-5.162
				c0.023,0.879,0.245,1.547,0.666,2.003c0.422,0.455,1.015,0.685,1.781,0.685c0.806,0,1.605-0.168,2.392-0.507v1.013
				c-0.4,0.173-0.779,0.297-1.136,0.373C48.808,145.591,48.376,145.628,47.871,145.628 M47.564,138.813
				c-0.602,0-1.082,0.195-1.439,0.588c-0.358,0.393-0.569,0.935-0.633,1.627h3.918c0-0.715-0.16-1.264-0.479-1.645
				C48.611,139.003,48.156,138.813,47.564,138.813"/>
		</g>
		<g>
			<path d="M58.387,145.492v-4.847c0-0.611-0.139-1.066-0.417-1.367c-0.278-0.301-0.713-0.451-1.306-0.451
				c-0.784,0-1.358,0.212-1.722,0.636c-0.365,0.425-0.547,1.123-0.547,2.1v3.931H53.26V138h0.923l0.184,1.025h0.055
				c0.233-0.369,0.559-0.655,0.978-0.858c0.419-0.202,0.886-0.304,1.401-0.304c0.902,0,1.581,0.218,2.037,0.653
				c0.456,0.435,0.684,1.131,0.684,2.088v4.888H58.387z"/>
		</g>
		<g>
			<path d="M65.547,145.628c-1.085,0-1.924-0.334-2.52-1.001c-0.593-0.668-0.891-1.612-0.891-2.834c0-1.253,0.302-2.222,0.905-2.904
				c0.605-0.685,1.465-1.025,2.581-1.025c0.361,0,0.72,0.039,1.08,0.116c0.361,0.077,0.643,0.168,0.848,0.272l-0.349,0.964
				c-0.251-0.1-0.524-0.184-0.82-0.25c-0.296-0.065-0.559-0.099-0.786-0.099c-1.523,0-2.283,0.971-2.283,2.912
				c0,0.921,0.185,1.627,0.557,2.119c0.371,0.492,0.921,0.738,1.651,0.738c0.624,0,1.264-0.135,1.921-0.403v1.005
				C66.94,145.499,66.309,145.628,65.547,145.628"/>
		</g>
		<g>
			<rect x="69.918" y="134.855" width="1.135" height="10.637"/>
		</g>
		<g>
			<path d="M78.767,145.492l-0.225-1.066h-0.055c-0.374,0.471-0.746,0.787-1.118,0.953c-0.371,0.167-0.835,0.25-1.391,0.25
				c-0.743,0-1.325-0.19-1.746-0.573c-0.422-0.385-0.632-0.929-0.632-1.635c0-1.514,1.209-2.307,3.629-2.379L78.5,141v-0.465
				c0-0.588-0.126-1.021-0.38-1.302c-0.252-0.281-0.657-0.421-1.213-0.421c-0.624,0-1.331,0.191-2.119,0.573l-0.349-0.867
				c0.369-0.201,0.774-0.358,1.214-0.473c0.44-0.113,0.88-0.171,1.322-0.171c0.894,0,1.555,0.198,1.987,0.596
				c0.429,0.396,0.645,1.031,0.645,1.906v5.113h-0.84V145.492z M76.204,144.692c0.706,0,1.261-0.194,1.665-0.581
				c0.402-0.387,0.605-0.93,0.605-1.627v-0.677l-1.135,0.048c-0.903,0.032-1.553,0.172-1.952,0.42
				c-0.399,0.249-0.598,0.635-0.598,1.159c0,0.409,0.124,0.722,0.373,0.937C75.41,144.584,75.758,144.692,76.204,144.692"/>
		</g>
		<g>
			<path d="M85.065,144.692c0.2,0,0.395-0.016,0.581-0.044c0.187-0.03,0.335-0.062,0.444-0.093v0.867
				c-0.123,0.061-0.304,0.108-0.543,0.146c-0.24,0.039-0.455,0.059-0.646,0.059c-1.449,0-2.174-0.764-2.174-2.291v-4.456h-1.073
				v-0.547l1.073-0.472l0.479-1.6h0.656V138h2.174v0.882h-2.174v4.409c0,0.451,0.107,0.797,0.321,1.039
				C84.397,144.571,84.691,144.692,85.065,144.692"/>
		</g>
		<g>
			<path d="M89.354,138v4.86c0,0.61,0.139,1.065,0.417,1.367c0.278,0.301,0.713,0.451,1.306,0.451c0.784,0,1.357-0.216,1.718-0.644
				c0.364-0.428,0.544-1.128,0.544-2.099V138h1.135v7.492h-0.936l-0.164-1.005h-0.062c-0.232,0.369-0.555,0.651-0.968,0.848
				c-0.412,0.196-0.883,0.294-1.411,0.294c-0.911,0-1.594-0.216-2.048-0.649c-0.453-0.434-0.679-1.125-0.679-2.077V138H89.354z"/>
		</g>
		<g>
			<path d="M100.999,137.863c0.333,0,0.631,0.027,0.896,0.082l-0.158,1.053c-0.309-0.067-0.583-0.103-0.82-0.103
				c-0.606,0-1.125,0.246-1.555,0.738c-0.431,0.491-0.646,1.104-0.646,1.839v4.02h-1.135V138h0.937l0.129,1.389h0.055
				c0.278-0.487,0.613-0.863,1.005-1.129C100.099,137.995,100.529,137.863,100.999,137.863"/>
		</g>
		<g>
			<path d="M107.161,145.628c-1.108,0-1.982-0.338-2.622-1.012c-0.64-0.675-0.96-1.61-0.96-2.81c0-1.207,0.297-2.167,0.891-2.878
				c0.596-0.712,1.394-1.066,2.397-1.066c0.938,0,1.681,0.309,2.228,0.926c0.547,0.618,0.821,1.434,0.821,2.444v0.718h-5.162
				c0.023,0.879,0.245,1.547,0.667,2.003c0.421,0.455,1.015,0.685,1.781,0.685c0.806,0,1.604-0.168,2.392-0.507v1.013
				c-0.401,0.173-0.78,0.297-1.137,0.373C108.098,145.591,107.666,145.628,107.161,145.628 M106.853,138.813
				c-0.602,0-1.081,0.195-1.439,0.588s-0.569,0.935-0.632,1.627h3.917c0-0.715-0.159-1.264-0.479-1.645
				C107.901,139.003,107.446,138.813,106.853,138.813"/>
		</g>
		<g>
			<path d="M58.388,179.195h1.251l-3.603,9.994h-1.148l-3.582-9.994h1.23l2.297,6.468c0.264,0.741,0.474,1.465,0.629,2.167
				c0.164-0.738,0.379-1.475,0.643-2.208L58.388,179.195z"/>
		</g>
		<g>
			<path d="M64.708,189.326c-1.108,0-1.982-0.337-2.622-1.011c-0.64-0.675-0.96-1.611-0.96-2.812c0-1.207,0.297-2.167,0.891-2.878
				c0.596-0.711,1.394-1.064,2.397-1.064c0.938,0,1.681,0.308,2.228,0.926s0.821,1.432,0.821,2.444v0.718H62.3
				c0.023,0.879,0.245,1.547,0.667,2.003c0.421,0.455,1.015,0.683,1.781,0.683c0.806,0,1.604-0.168,2.392-0.506v1.012
				c-0.401,0.175-0.78,0.298-1.137,0.373C65.645,189.289,65.212,189.326,64.708,189.326 M64.399,182.51
				c-0.602,0-1.081,0.196-1.439,0.59c-0.358,0.392-0.569,0.934-0.632,1.627h3.917c0-0.717-0.159-1.266-0.479-1.646
				C65.447,182.701,64.993,182.51,64.399,182.51"/>
		</g>
		<g>
			<path d="M73.515,181.56c0.333,0,0.631,0.026,0.896,0.082l-0.158,1.054c-0.309-0.069-0.583-0.104-0.82-0.104
				c-0.606,0-1.125,0.246-1.555,0.739c-0.431,0.492-0.646,1.104-0.646,1.838v4.021h-1.135v-7.492h0.937l0.129,1.387h0.055
				c0.278-0.486,0.613-0.862,1.005-1.128C72.615,181.693,73.045,181.56,73.515,181.56"/>
		</g>
		<g>
			<path d="M79.997,181.575c0.984,0,1.749,0.336,2.293,1.008c0.545,0.672,0.817,1.624,0.817,2.854s-0.274,2.188-0.823,2.868
				c-0.55,0.682-1.311,1.021-2.287,1.021c-0.487,0-0.934-0.09-1.336-0.271c-0.404-0.181-0.742-0.457-1.016-0.831h-0.082
				l-0.239,0.964h-0.813v-10.638h1.134v2.585c0,0.578-0.018,1.099-0.054,1.56h0.054C78.174,181.948,78.958,181.575,79.997,181.575
				 M79.833,182.524c-0.774,0-1.333,0.223-1.675,0.667c-0.342,0.443-0.513,1.191-0.513,2.245s0.176,1.807,0.527,2.26
				c0.35,0.453,0.914,0.681,1.688,0.681c0.698,0,1.217-0.254,1.559-0.763c0.342-0.509,0.513-1.238,0.513-2.191
				c0-0.975-0.171-1.701-0.513-2.18C81.077,182.763,80.549,182.524,79.833,182.524"/>
		</g>
		<g>
			<path d="M90.397,189.19l-0.225-1.067h-0.055c-0.374,0.47-0.746,0.788-1.118,0.954c-0.371,0.167-0.835,0.25-1.391,0.25
				c-0.743,0-1.325-0.192-1.746-0.575c-0.422-0.383-0.632-0.927-0.632-1.633c0-1.514,1.209-2.307,3.629-2.379l1.272-0.041v-0.465
				c0-0.588-0.126-1.022-0.38-1.303c-0.252-0.28-0.657-0.422-1.213-0.422c-0.624,0-1.331,0.192-2.119,0.574l-0.349-0.868
				c0.369-0.2,0.774-0.356,1.214-0.472c0.44-0.113,0.88-0.17,1.322-0.17c0.894,0,1.555,0.198,1.987,0.594
				c0.429,0.397,0.645,1.033,0.645,1.908v5.113L90.397,189.19L90.397,189.19z M87.834,188.389c0.706,0,1.261-0.193,1.665-0.581
				c0.402-0.388,0.605-0.931,0.605-1.627v-0.678l-1.135,0.048c-0.903,0.032-1.553,0.173-1.952,0.421
				c-0.399,0.249-0.598,0.636-0.598,1.158c0,0.41,0.124,0.724,0.373,0.938C87.04,188.283,87.388,188.389,87.834,188.389"/>
		</g>
		<g>
			<rect x="94.276" y="178.552" width="1.135" height="10.638"/>
		</g>
		<g>
			<rect x="424.824" y="228.474" width="1.162" height="9.993"/>
		</g>
		<g>
			<path d="M434.382,238.468v-4.848c0-0.609-0.139-1.064-0.416-1.367c-0.279-0.301-0.713-0.45-1.307-0.45
				c-0.783,0-1.357,0.213-1.723,0.637s-0.547,1.124-0.547,2.098v3.932h-1.135v-7.491h0.922l0.186,1.023h0.055
				c0.232-0.369,0.559-0.653,0.979-0.855c0.42-0.203,0.887-0.307,1.4-0.307c0.902,0,1.582,0.22,2.037,0.653
				c0.457,0.437,0.684,1.131,0.684,2.088v4.889L434.382,238.468L434.382,238.468z"/>
		</g>
		<g>
			<path d="M440.968,237.668c0.201,0,0.396-0.016,0.582-0.045c0.188-0.029,0.334-0.06,0.443-0.093v0.868
				c-0.123,0.06-0.305,0.108-0.543,0.147c-0.24,0.038-0.455,0.059-0.646,0.059c-1.447,0-2.174-0.764-2.174-2.291v-4.457h-1.072
				v-0.546l1.072-0.473l0.48-1.601h0.654v1.737h2.174v0.881h-2.174v4.41c0,0.45,0.107,0.797,0.32,1.039
				C440.3,237.546,440.595,237.668,440.968,237.668"/>
		</g>
		<g>
			<path d="M445.257,230.975v4.859c0,0.612,0.139,1.067,0.416,1.368c0.279,0.3,0.713,0.451,1.309,0.451
				c0.781,0,1.355-0.214,1.717-0.645c0.363-0.428,0.545-1.128,0.545-2.098v-3.938h1.135v7.491h-0.936l-0.164-1.005h-0.062
				c-0.23,0.369-0.555,0.653-0.969,0.85c-0.412,0.194-0.883,0.294-1.41,0.294c-0.912,0-1.594-0.217-2.049-0.65
				c-0.453-0.432-0.678-1.125-0.678-2.078v-4.9H445.257z"/>
		</g>
		<g>
			<path d="M453.388,228.945c0-0.259,0.062-0.45,0.191-0.57c0.127-0.12,0.287-0.182,0.479-0.182c0.184,0,0.342,0.062,0.473,0.186
				c0.131,0.123,0.197,0.312,0.197,0.566c0,0.256-0.066,0.446-0.197,0.572c-0.131,0.125-0.289,0.187-0.473,0.187
				c-0.191,0-0.352-0.062-0.479-0.187C453.451,229.391,453.388,229.201,453.388,228.945 M454.619,238.468h-1.135v-7.491h1.135
				V238.468z"/>
		</g>
		<g>
			<path d="M460.144,237.668c0.201,0,0.396-0.016,0.582-0.045c0.188-0.029,0.334-0.06,0.443-0.093v0.868
				c-0.123,0.06-0.305,0.108-0.543,0.147c-0.24,0.038-0.455,0.059-0.645,0.059c-1.449,0-2.176-0.764-2.176-2.291v-4.457h-1.072
				v-0.546l1.072-0.473l0.48-1.601h0.654v1.737h2.174v0.881h-2.174v4.41c0,0.45,0.107,0.797,0.32,1.039
				C459.476,237.546,459.771,237.668,460.144,237.668"/>
		</g>
		<g>
			<path d="M463.273,228.945c0-0.259,0.061-0.45,0.189-0.57c0.127-0.12,0.287-0.182,0.479-0.182c0.182,0,0.34,0.062,0.471,0.186
				c0.133,0.124,0.199,0.312,0.199,0.566c0,0.256-0.066,0.446-0.199,0.572c-0.131,0.125-0.289,0.187-0.471,0.187
				c-0.191,0-0.352-0.062-0.479-0.187C463.335,229.391,463.273,229.201,463.273,228.945 M464.501,238.468h-1.135v-7.491h1.135
				V238.468z"/>
		</g>
		<g>
			<path d="M474.076,234.714c0,1.224-0.309,2.177-0.924,2.861c-0.615,0.688-1.465,1.029-2.551,1.029
				c-0.67,0-1.264-0.158-1.783-0.474c-0.52-0.312-0.92-0.766-1.203-1.354c-0.281-0.587-0.424-1.275-0.424-2.064
				c0-1.221,0.307-2.173,0.916-2.854c0.611-0.681,1.459-1.022,2.543-1.022c1.049,0,1.881,0.351,2.5,1.047
				C473.767,232.582,474.076,233.526,474.076,234.714 M468.367,234.714c0,0.957,0.191,1.688,0.574,2.188s0.945,0.751,1.688,0.751
				c0.744,0,1.307-0.249,1.691-0.748c0.387-0.499,0.578-1.229,0.578-2.191c0-0.95-0.191-1.676-0.578-2.17
				c-0.385-0.495-0.953-0.74-1.705-0.74c-0.742,0-1.305,0.242-1.682,0.729C468.556,233.023,468.367,233.749,468.367,234.714"/>
		</g>
		<g>
			<path d="M481.89,238.468v-4.848c0-0.609-0.139-1.064-0.416-1.367c-0.277-0.301-0.713-0.45-1.307-0.45
				c-0.783,0-1.357,0.213-1.723,0.637s-0.547,1.124-0.547,2.098v3.932h-1.135v-7.491h0.922l0.186,1.023h0.055
				c0.232-0.369,0.561-0.653,0.979-0.855c0.42-0.203,0.887-0.307,1.4-0.307c0.902,0,1.582,0.22,2.037,0.653
				c0.457,0.437,0.686,1.131,0.686,2.088v4.889L481.89,238.468L481.89,238.468z"/>
		</g>
		<g>
			
				<rect x="385.875" y="61.815" transform="matrix(-0.4207 -0.9072 0.9072 -0.4207 467.4149 478.9502)" fill="#D01481" width="1.5" height="56.853"/>
		</g>
		<g>
			
				<rect x="358.215" y="214.19" transform="matrix(-0.9076 -0.4199 0.4199 -0.9076 647.2974 572.359)" fill="#D01481" width="56.85" height="1.5"/>
		</g>
		<g>
			
				<rect x="397.973" y="96.529" transform="matrix(-0.2514 -0.9679 0.9679 -0.2514 374.3583 547.0292)" fill="#D01481" width="1.499" height="64.431"/>
		</g>
		<g>
			
				<rect x="366.475" y="171.989" transform="matrix(-0.9679 -0.2512 0.2512 -0.9679 741.1961 440.0982)" fill="#D01481" width="64.428" height="1.5"/>
		</g>
		<g>
			
				<rect x="125.626" y="89.471" transform="matrix(-0.9076 -0.4199 0.4199 -0.9076 255.982 236.787)" fill="#007BFF" width="56.849" height="1.5"/>
		</g>
		<g>
			
				<rect x="153.306" y="186.514" transform="matrix(-0.4202 -0.9074 0.9074 -0.4202 23.7426 445.0452)" fill="#007BFF" width="1.499" height="56.846"/>
		</g>
		<g>
			
				<rect x="109.745" y="127.992" transform="matrix(-0.9679 -0.2512 0.2512 -0.9679 247.0255 289.0183)" fill="#007BFF" width="64.43" height="1.5"/>
		</g>
		<g>
			
				<rect x="141.223" y="140.537" transform="matrix(-0.2514 -0.9679 0.9679 -0.2514 10.4626 353.5984)" fill="#007BFF" width="1.499" height="64.432"/>
		</g>
	</g>
</g>
<g id="Layer_2">
	<g enable-background="new    ">
		<path fill="#007BFF" d="M162.533,19.034v11.538h6.942v2.614h-10.006V19.034H162.533z"/>
		<path fill="#007BFF" d="M173.89,30.753c0.451,0.451,0.992,0.63,1.804,0.63c0.541,0,1.081-0.18,1.442-0.451
			c0.451-0.271,0.632-0.541,0.721-0.901h2.434c-0.36,1.262-0.991,2.074-1.804,2.614c-0.812,0.541-1.802,0.811-2.974,0.811
			c-0.812,0-1.533-0.089-2.165-0.36c-0.631-0.271-1.171-0.632-1.622-1.082c-0.451-0.451-0.812-1.082-1.082-1.712
			c-0.271-0.632-0.36-1.353-0.36-2.165c0-0.721,0.089-1.442,0.36-2.164c0.27-0.631,0.63-1.261,1.082-1.712
			c0.451-0.452,0.991-0.903,1.622-1.173c0.631-0.269,1.353-0.451,2.165-0.451c0.901,0,1.622,0.181,2.253,0.541
			c0.63,0.361,1.172,0.812,1.622,1.353c0.451,0.542,0.721,1.172,0.901,1.984c0.18,0.721,0.271,1.442,0.18,2.253h-7.392
			C173.169,29.671,173.44,30.303,173.89,30.753z M177.046,25.344c-0.36-0.361-0.812-0.541-1.532-0.541
			c-0.452,0-0.812,0.089-1.082,0.271c-0.271,0.18-0.541,0.36-0.721,0.541c-0.18,0.18-0.271,0.451-0.36,0.721
			c-0.089,0.27-0.089,0.451-0.089,0.632h4.598C177.586,26.246,177.407,25.705,177.046,25.344z"/>
		<path fill="#007BFF" d="M181.192,24.804v-1.893h1.713v-0.812c0-0.903,0.271-1.622,0.811-2.254
			c0.542-0.541,1.442-0.902,2.614-0.902c0.271,0,0.541,0,0.721,0c0.271,0,0.451,0,0.721,0.091v2.073
			c-0.361,0-0.631-0.089-0.992-0.089c-0.361,0-0.63,0.089-0.812,0.271c-0.18,0.18-0.27,0.451-0.27,0.9v0.721h1.982v1.893H185.7
			v8.384h-2.794v-8.384H181.192z"/>
		<path fill="#007BFF" d="M194.444,22.911v1.893h-2.073v5.048c0,0.451,0.091,0.812,0.271,0.992c0.181,0.18,0.451,0.271,0.992,0.271
			c0.18,0,0.27,0,0.451,0c0.18,0,0.271,0,0.452-0.091v2.165c-0.271,0-0.542,0.089-0.812,0.089c-0.271,0-0.541,0-0.812,0
			c-0.451,0-0.812,0-1.263-0.089c-0.36-0.089-0.72-0.18-0.99-0.361c-0.271-0.18-0.541-0.451-0.721-0.721
			c-0.181-0.36-0.271-0.721-0.271-1.262v-6.04h-1.713v-1.893h1.713v-3.065h2.794v3.065h1.982V22.911z"/>
		<path fill="#007BFF" d="M208.236,19.034c0.631,0,1.263,0.089,1.804,0.18c0.541,0.089,0.992,0.271,1.442,0.541
			c0.36,0.27,0.72,0.631,0.901,1.082c0.18,0.451,0.361,0.992,0.361,1.623c0,0.721-0.181,1.353-0.452,1.804
			c-0.36,0.451-0.812,0.901-1.442,1.172c0.903,0.27,1.533,0.721,1.984,1.353c0.451,0.632,0.63,1.353,0.63,2.253
			c0,0.721-0.18,1.353-0.451,1.893c-0.271,0.541-0.631,0.992-1.081,1.263c-0.451,0.36-0.991,0.541-1.623,0.721
			c-0.631,0.181-1.262,0.271-1.893,0.271h-6.851V19.037h6.671V19.034z M207.875,24.804c0.541,0,0.992-0.089,1.352-0.36
			c0.361-0.271,0.541-0.721,0.541-1.261c0-0.361-0.089-0.632-0.18-0.812c-0.089-0.181-0.271-0.36-0.451-0.451
			c-0.181-0.089-0.451-0.18-0.721-0.27c-0.271-0.091-0.541-0.091-0.812-0.091h-2.885v3.335h3.155v-0.089H207.875z M208.056,30.753
			c0.271,0,0.632,0,0.901-0.091c0.271-0.09,0.542-0.181,0.722-0.27c0.18-0.18,0.36-0.36,0.541-0.541
			c0.089-0.27,0.18-0.541,0.18-0.901c0-0.722-0.18-1.262-0.631-1.533c-0.451-0.271-0.99-0.451-1.622-0.451h-3.426v3.875h3.335
			v-0.089H208.056z"/>
		<path fill="#007BFF" d="M217.971,22.911v1.893l0,0c0.089-0.36,0.271-0.631,0.541-0.901c0.18-0.271,0.452-0.541,0.812-0.721
			c0.27-0.181,0.63-0.361,0.901-0.451c0.36-0.091,0.631-0.181,0.992-0.181c0.18,0,0.36,0,0.63,0.089v2.614
			c-0.089,0-0.27-0.089-0.451-0.089c-0.18,0-0.361,0-0.541,0c-0.541,0-0.992,0.089-1.353,0.271c-0.361,0.181-0.63,0.451-0.901,0.721
			c-0.18,0.27-0.36,0.63-0.451,1.081c-0.091,0.361-0.18,0.812-0.18,1.263v4.598h-2.794V22.912h2.795V22.911z"/>
		<path fill="#007BFF" d="M222.838,26.066c0-0.63,0.18-1.172,0.451-1.622c0.271-0.452,0.631-0.812,1.082-1.082
			c0.45-0.27,0.992-0.451,1.533-0.541c0.541-0.089,1.082-0.181,1.712-0.181c0.541,0,1.082,0,1.533,0.091
			c0.541,0.089,0.991,0.18,1.442,0.451c0.451,0.18,0.811,0.541,1.081,0.901c0.271,0.36,0.451,0.901,0.451,1.533v5.319
			c0,0.451,0,0.902,0.089,1.353c0.089,0.45,0.181,0.721,0.271,0.99H229.6c-0.09-0.18-0.09-0.36-0.09-0.451
			c0-0.18-0.09-0.361-0.09-0.541c-0.451,0.451-0.991,0.812-1.622,0.99c-0.63,0.18-1.262,0.271-1.893,0.271
			c-0.451,0-0.901-0.089-1.352-0.181c-0.452-0.091-0.812-0.271-1.082-0.541c-0.36-0.27-0.541-0.541-0.721-0.991
			c-0.18-0.36-0.271-0.812-0.271-1.352s0.089-1.082,0.271-1.442c0.18-0.361,0.452-0.721,0.812-0.901
			c0.36-0.18,0.721-0.36,1.081-0.541c0.451-0.089,0.812-0.18,1.262-0.269c0.452-0.091,0.812-0.091,1.261-0.181
			c0.451,0,0.812-0.089,1.082-0.18c0.36-0.091,0.541-0.181,0.721-0.361c0.18-0.18,0.271-0.36,0.271-0.631
			c0-0.271-0.089-0.542-0.181-0.721c-0.09-0.18-0.271-0.361-0.36-0.451c-0.181-0.089-0.361-0.18-0.541-0.18
			s-0.452-0.089-0.721-0.089c-0.541,0-0.991,0.089-1.353,0.36c-0.362,0.271-0.541,0.632-0.541,1.172h-2.705V26.066z M229.33,28.139
			c-0.089,0.089-0.27,0.18-0.451,0.27c-0.18,0.09-0.361,0.09-0.541,0.18c-0.18,0-0.451,0.089-0.631,0.089
			c-0.181,0-0.451,0.091-0.632,0.091c-0.18,0-0.452,0.09-0.63,0.181c-0.181,0.089-0.361,0.18-0.541,0.271
			c-0.181,0.09-0.271,0.27-0.36,0.451c-0.089,0.181-0.18,0.361-0.18,0.632c0,0.27,0.089,0.451,0.18,0.63
			c0.089,0.181,0.18,0.271,0.36,0.452c0.18,0.18,0.36,0.18,0.541,0.18c0.18,0,0.451,0.09,0.63,0.09c0.541,0,0.992-0.09,1.263-0.271
			c0.27-0.18,0.541-0.451,0.63-0.63c0.18-0.271,0.271-0.541,0.271-0.812s0.089-0.451,0.089-0.631v-1.171H229.33z"/>
		<path fill="#007BFF" d="M234.468,21.379v-2.343h2.794v2.343H234.468z M237.262,22.911v10.276h-2.794V22.911H237.262
			L237.262,22.911z"/>
		<path fill="#007BFF" d="M242.129,22.911v1.442h0.09c0.36-0.631,0.812-0.992,1.352-1.263c0.541-0.269,1.172-0.451,1.713-0.451
			c0.721,0,1.353,0.091,1.893,0.271c0.451,0.18,0.901,0.451,1.172,0.812c0.27,0.36,0.451,0.812,0.541,1.353
			c0.089,0.541,0.18,1.081,0.18,1.712v6.311h-2.794v-5.679c0-0.812-0.089-1.442-0.36-1.893c-0.27-0.451-0.721-0.632-1.442-0.632
			c-0.811,0-1.352,0.271-1.622,0.721c-0.361,0.451-0.541,1.172-0.541,2.253v5.409h-2.794V22.91L242.129,22.911L242.129,22.911z"/>
	</g>
	<g enable-background="new    ">
		<path fill="#D01481" d="M293.162,19.116c0.632,0,1.172,0.09,1.714,0.271c0.539,0.18,0.902,0.451,1.261,0.812
			c0.363,0.36,0.634,0.812,0.813,1.263c0.183,0.451,0.271,0.991,0.271,1.533c0,0.812-0.182,1.533-0.54,2.163
			c-0.362,0.632-0.9,1.082-1.716,1.352l0,0c0.363,0.09,0.722,0.272,0.994,0.451c0.269,0.181,0.448,0.453,0.628,0.812
			c0.184,0.271,0.274,0.632,0.363,0.992c0.089,0.361,0.089,0.721,0.183,1.082c0,0.181,0,0.451,0,0.812c0,0.271,0,0.632,0.088,0.901
			c0,0.361,0.089,0.632,0.18,0.903c0.089,0.27,0.182,0.54,0.363,0.721h-3.066c-0.183-0.451-0.27-0.992-0.363-1.624
			c0-0.63-0.087-1.172-0.179-1.802c-0.091-0.722-0.361-1.263-0.632-1.625c-0.361-0.36-0.9-0.54-1.714-0.54h-3.065v5.499h-3.063
			V19.119h7.481V19.116z M292.081,25.518c0.722,0,1.261-0.18,1.622-0.451c0.359-0.36,0.542-0.812,0.542-1.533
			c0-0.721-0.183-1.172-0.542-1.533c-0.361-0.271-0.9-0.451-1.622-0.451h-3.426v3.967L292.081,25.518L292.081,25.518z"/>
		<path fill="#D01481" d="M299.652,21.46v-2.344h2.796v2.344H299.652z M302.448,22.993v10.186h-2.796V22.993H302.448z"/>
		<path fill="#D01481" d="M314.255,33.991c-0.09,0.541-0.359,0.991-0.721,1.442c-0.358,0.451-0.902,0.812-1.622,1.172
			c-0.723,0.361-1.623,0.451-2.795,0.451c-0.539,0-0.989-0.089-1.532-0.181c-0.54-0.091-0.99-0.361-1.442-0.54
			c-0.45-0.271-0.813-0.632-1.079-0.992c-0.27-0.452-0.454-0.902-0.454-1.533h2.796c0.089,0.54,0.361,0.902,0.812,1.081
			c0.361,0.181,0.812,0.271,1.353,0.271c0.812,0,1.354-0.271,1.714-0.721c0.358-0.451,0.54-1.081,0.54-1.804v-1.353l0,0
			c-0.271,0.542-0.721,0.902-1.264,1.172c-0.54,0.27-1.172,0.361-1.805,0.361c-0.72,0-1.44-0.092-1.981-0.361
			c-0.542-0.271-0.99-0.63-1.354-1.081c-0.36-0.451-0.63-0.993-0.811-1.623c-0.183-0.631-0.27-1.264-0.27-1.984
			c0-0.629,0.087-1.262,0.27-1.893c0.181-0.63,0.45-1.172,0.811-1.622c0.363-0.452,0.812-0.812,1.354-1.082
			c0.541-0.271,1.172-0.451,1.892-0.451c0.633,0,1.262,0.089,1.806,0.36c0.539,0.271,0.9,0.632,1.262,1.262l0,0v-1.353h2.702v9.555
			C314.435,33,314.435,33.451,314.255,33.991z M310.471,30.566c0.267-0.182,0.539-0.361,0.719-0.633
			c0.182-0.271,0.359-0.541,0.45-0.9c0.09-0.36,0.184-0.721,0.184-1.082c0-0.451,0-0.811-0.091-1.171
			c-0.091-0.361-0.184-0.722-0.361-0.992c-0.182-0.271-0.45-0.542-0.721-0.722c-0.27-0.18-0.724-0.271-1.172-0.271
			c-0.363,0-0.721,0.091-0.993,0.271c-0.269,0.18-0.539,0.36-0.719,0.631c-0.182,0.271-0.361,0.542-0.452,0.901
			c-0.089,0.36-0.089,0.721-0.089,1.081c0,0.36,0,0.721,0.089,1.082c0.091,0.36,0.18,0.72,0.363,0.992
			c0.18,0.27,0.45,0.541,0.72,0.721c0.27,0.18,0.631,0.271,1.083,0.271C309.837,30.835,310.11,30.746,310.471,30.566z"/>
		<path fill="#D01481" d="M319.485,19.116v5.319h0.09c0.36-0.631,0.811-0.991,1.353-1.262c0.541-0.271,1.08-0.36,1.623-0.36
			c0.719,0,1.352,0.089,1.802,0.271c0.45,0.181,0.9,0.451,1.171,0.812c0.27,0.361,0.452,0.812,0.543,1.353
			c0.087,0.542,0.179,1.082,0.179,1.712v6.312h-2.795v-5.769c0-0.811-0.089-1.442-0.358-1.893c-0.274-0.451-0.725-0.63-1.443-0.63
			c-0.721,0-1.354,0.27-1.623,0.72c-0.361,0.451-0.54,1.172-0.54,2.254v5.319h-2.794V19.119h2.794V19.116z"/>
		<path fill="#D01481" d="M334.086,22.993v1.894h-2.072v5.047c0,0.451,0.092,0.812,0.27,0.993c0.182,0.18,0.45,0.27,0.993,0.27
			c0.182,0,0.271,0,0.45,0c0.182,0,0.271,0,0.451-0.089v2.164c-0.27,0-0.542,0.089-0.812,0.089s-0.538,0-0.81,0
			c-0.45,0-0.813,0-1.264-0.089c-0.363-0.091-0.72-0.181-0.992-0.36c-0.27-0.181-0.541-0.452-0.719-0.722
			c-0.182-0.36-0.271-0.72-0.271-1.261v-6.04h-1.803v-1.893h1.712v-3.065h2.794v3.065h2.072V22.993z"/>
		<path fill="#D01481" d="M347.79,19.116c0.634,0,1.262,0.09,1.806,0.181c0.539,0.089,0.989,0.271,1.439,0.54
			c0.359,0.271,0.723,0.632,0.902,1.082c0.18,0.45,0.359,0.992,0.359,1.623c0,0.721-0.18,1.262-0.45,1.803
			c-0.361,0.451-0.812,0.902-1.441,1.172c0.902,0.271,1.532,0.721,1.984,1.352c0.45,0.631,0.632,1.353,0.632,2.253
			c0,0.721-0.182,1.353-0.45,1.804c-0.274,0.54-0.634,0.9-1.084,1.261c-0.45,0.36-0.989,0.54-1.622,0.721s-1.171,0.271-1.803,0.271
			h-6.853V19.116H347.79L347.79,19.116z M347.429,24.886c0.544,0,0.994-0.091,1.354-0.36c0.361-0.271,0.539-0.722,0.539-1.264
			c0-0.36-0.09-0.63-0.179-0.811c-0.092-0.181-0.271-0.361-0.451-0.451c-0.182-0.09-0.45-0.181-0.719-0.271
			c-0.274-0.089-0.544-0.089-0.813-0.089h-2.884v3.335h3.153V24.886L347.429,24.886z M347.61,30.835c0.271,0,0.632,0,0.902-0.089
			c0.271-0.089,0.539-0.18,0.72-0.271c0.183-0.181,0.363-0.361,0.544-0.542c0.087-0.271,0.179-0.541,0.179-0.9
			c0-0.721-0.179-1.264-0.633-1.533c-0.45-0.271-0.989-0.451-1.623-0.451h-3.334v3.786H347.61L347.61,30.835z"/>
		<path fill="#D01481" d="M357.437,22.993v1.894l0,0c0.09-0.36,0.271-0.631,0.54-0.902c0.18-0.271,0.452-0.541,0.813-0.722
			c0.269-0.18,0.632-0.36,0.898-0.451c0.363-0.089,0.632-0.18,0.993-0.18c0.181,0,0.359,0,0.629,0.089v2.704
			c-0.087,0-0.179,0-0.448,0c-0.181,0-0.361,0-0.542,0c-0.539,0-0.989,0.091-1.262,0.271c-0.359,0.181-0.63,0.361-0.902,0.722
			c-0.18,0.269-0.36,0.63-0.449,1.081c-0.088,0.451-0.181,0.812-0.181,1.261v4.599h-2.795V22.992L357.437,22.993L357.437,22.993z"/>
		<path fill="#D01481" d="M362.393,26.147c0-0.63,0.182-1.171,0.451-1.621c0.271-0.451,0.633-0.812,1.083-1.082
			c0.45-0.271,0.991-0.451,1.535-0.541c0.539-0.09,1.078-0.18,1.712-0.18c0.539,0,0.993,0,1.532,0.089
			c0.54,0.089,0.992,0.18,1.442,0.451c0.45,0.18,0.81,0.54,1.082,0.902c0.271,0.36,0.451,0.901,0.451,1.532v5.319
			c0,0.451,0,0.901,0.087,1.353c0.09,0.451,0.183,0.72,0.272,0.991h-2.884c-0.092-0.182-0.092-0.36-0.092-0.451
			c0-0.181-0.089-0.361-0.089-0.542c-0.45,0.452-0.991,0.811-1.623,0.991c-0.63,0.181-1.264,0.271-1.892,0.271
			c-0.45,0-0.901-0.089-1.354-0.179c-0.45-0.09-0.812-0.271-1.08-0.541c-0.361-0.271-0.542-0.542-0.723-0.993
			c-0.18-0.359-0.27-0.811-0.27-1.352c0-0.542,0.09-1.082,0.27-1.442c0.181-0.361,0.45-0.633,0.813-0.902
			c0.359-0.182,0.721-0.361,1.079-0.542c0.452-0.089,0.813-0.181,1.266-0.271c0.45-0.09,0.81-0.09,1.264-0.181
			c0.45,0,0.81-0.089,1.078-0.181c0.363-0.089,0.545-0.18,0.723-0.36c0.18-0.181,0.271-0.36,0.271-0.631
			c0-0.269-0.092-0.54-0.181-0.72c-0.091-0.181-0.269-0.361-0.363-0.452c-0.18-0.091-0.36-0.18-0.539-0.18
			c-0.178,0-0.45-0.09-0.72-0.09c-0.544,0-0.994,0.09-1.264,0.361c-0.362,0.271-0.539,0.631-0.539,1.172h-2.802V26.147z
			 M368.883,28.222c-0.087,0.09-0.27,0.18-0.45,0.27c-0.179,0.091-0.358,0.091-0.539,0.182c-0.181,0-0.45,0.089-0.629,0.089
			c-0.182,0-0.45,0.089-0.633,0.089c-0.181,0-0.45,0.089-0.631,0.18c-0.182,0.09-0.363,0.18-0.539,0.27
			c-0.183,0.091-0.27,0.271-0.363,0.452c-0.089,0.179-0.181,0.36-0.181,0.629c0,0.271,0.092,0.451,0.181,0.632
			c0.089,0.18,0.181,0.271,0.363,0.36c0.181,0.089,0.359,0.18,0.539,0.18c0.181,0,0.45,0.09,0.631,0.09
			c0.54,0,0.992-0.09,1.262-0.271c0.273-0.181,0.539-0.36,0.633-0.632c0.18-0.271,0.27-0.541,0.27-0.812s0.087-0.451,0.087-0.631
			V28.222L368.883,28.222z"/>
		<path fill="#D01481" d="M373.933,21.46v-2.344h2.793v2.344H373.933z M376.73,22.993v10.186h-2.797V22.993H376.73z"/>
		<path fill="#D01481" d="M381.597,22.993v1.442h0.09c0.358-0.631,0.809-0.991,1.353-1.262c0.539-0.271,1.172-0.36,1.711-0.36
			c0.721,0,1.353,0.089,1.803,0.271c0.451,0.181,0.903,0.451,1.173,0.812c0.27,0.361,0.449,0.812,0.54,1.353
			c0.091,0.542,0.18,1.082,0.18,1.712v6.312h-2.795v-5.769c0-0.811-0.087-1.442-0.361-1.893c-0.269-0.451-0.721-0.63-1.441-0.63
			c-0.722,0-1.353,0.27-1.622,0.72c-0.359,0.451-0.539,1.172-0.539,2.254v5.319h-2.795V22.995h2.705V22.993z"/>
	</g>
</g>
</svg>
