<?xml version="1.0" encoding="utf-8"?>
<!-- Generator: Adobe Illustrator 16.0.0, SVG Export Plug-In . SVG Version: 6.00 Build 0)  -->
<!DOCTYPE svg PUBLIC "-//W3C//DTD SVG 1.1//EN" "http://www.w3.org/Graphics/SVG/1.1/DTD/svg11.dtd">
<svg version="1.1" id="Layer_1" xmlns="http://www.w3.org/2000/svg" xmlns:xlink="http://www.w3.org/1999/xlink" x="0px" y="0px"
	 width="432px" height="230.989px" viewBox="0 0 432 230.989" enable-background="new 0 0 432 230.989" xml:space="preserve">
<g id="_x36_zscem.tif">
	<g>
		<path fill-rule="evenodd" clip-rule="evenodd" fill="#CC5700" d="M212.665,224.232c-1.586-0.156-3.171-0.341-4.76-0.466
			c-5.959-0.467-10.782-3.16-14.772-7.499c-0.152-0.165-0.305-0.33-0.466-0.486c-2.385-2.31-3.948-4.958-4.268-8.396
			c-0.271-2.915-1.26-5.676-3.169-8.024c-1.043-1.282-0.634-2.784-0.416-4.215c0.614-4.013,2.068-7.786,3.375-11.602
			c1.417-4.13,2.597-8.317,2.243-12.743c-0.312-3.897-1.227-7.686-2.415-11.406c-2.089-6.541-5.176-12.645-8.263-18.748
			c-2.909-5.751-5.87-11.479-8.037-17.571c-2.141-6.016-3.47-12.181-3.327-18.598c0.02-0.927-0.215-1.564-1.032-1.993
			c-0.916-0.48-1.837-0.678-2.803-0.149c-6.208,3.4-12.689,6.071-19.73,7.132c-5.599,0.843-10.988,0.212-16.09-2.467
			c-2.525-1.326-5.222-2.321-7.77-3.607c-2.1-1.06-3.882-2.547-5.111-4.627c-0.625-1.057-0.756-2.106-0.444-3.293
			c0.628-2.395,2.053-4.166,4.301-5.068c2.356-0.945,4.806-1.678,7.252-2.371c3.509-0.995,6.686-2.575,9.447-4.964
			c0.436-0.376,0.807-0.829,1.275-1.317c-0.291-0.154-0.443-0.267-0.616-0.322c-9.801-3.136-18.734-8.009-27.293-13.628
			c-8.192-5.376-15.945-11.358-23.75-17.268c-7.739-5.86-15.512-11.671-23.822-16.715c-8.62-5.232-17.65-9.519-27.501-11.91
			c-8.061-1.956-16.215-2.531-24.466-1.66c-0.947,0.1-1.899,0.184-2.836,0.346c-1.43,0.246-2.485-0.395-3.286-1.44
			C3.335,18.136,2.699,17.006,2,15.925c0-0.449,0-0.898,0-1.347c0.447-1.672,1.375-3.015,2.624-4.215
			c1.143-1.099,2.578-1.295,3.985-1.598c6.08-1.308,12.238-1.543,18.42-1.143c19.331,1.25,37.113,7.549,54.042,16.637
			c10.038,5.388,19.682,11.438,29.453,17.278c7.604,4.544,15.281,8.969,22.985,13.338c3.436,1.947,7.271,2.917,11.095,3.807
			c5.298,1.233,10.677,1.778,16.115,1.533c7.277-0.33,14.197-1.939,20.46-5.856c1.613-1.008,3.448-1.114,5.29-0.969
			c0.891,0.07,1.77,0.294,2.66,0.379c0.327,0.031,0.72-0.057,1.003-0.226c2.175-1.303,4.328-1.5,6.572-0.124
			c2.243,1.376,4.7,1.308,7.179,0.839c2.008-0.38,4.005-0.834,6.022-1.162c1.891-0.306,3.741-0.067,5.511,0.722
			c0.277,0.124,0.691,0.228,0.929,0.111c2.544-1.249,5.156-1.028,7.819-0.522c2.278,0.433,4.568,0.839,6.871,1.102
			c1.534,0.175,3.01-0.299,4.327-1.12c2.142-1.334,4.256-1.171,6.342,0.077c0.495,0.296,0.917,0.354,1.487,0.261
			c1.24-0.201,2.503-0.345,3.758-0.358c1.533-0.017,2.966,0.402,4.305,1.227c5.009,3.084,10.515,4.69,16.325,5.316
			c9.986,1.076,19.662-0.318,28.922-4.117c3.455-1.417,6.713-3.37,9.938-5.284c9.934-5.896,19.798-11.91,29.71-17.841
			c10.593-6.338,21.385-12.29,32.894-16.843c8.186-3.238,16.632-5.512,25.307-6.977c6.299-1.063,12.632-1.571,19.02-1.32
			c4.102,0.161,8.154,0.7,12.135,1.722c2.392,0.615,4.939,4.144,4.337,6.505c-0.518,2.028-1.679,3.944-3.82,4.71
			c-0.845,0.303-1.926,0.016-2.891-0.096c-5.258-0.609-10.52-0.691-15.789-0.173c-13.106,1.287-24.941,6.158-36.152,12.797
			c-8.974,5.315-17.297,11.561-25.6,17.838c-8.012,6.057-15.961,12.198-24.406,17.656c-7.675,4.961-15.663,9.301-24.327,12.305
			c-0.789,0.274-1.581,0.54-2.573,0.876c0.486,0.522,0.841,0.974,1.265,1.347c2.947,2.587,6.39,4.188,10.161,5.194
			c2.133,0.57,4.264,1.209,6.304,2.042c2.779,1.134,4.431,3.269,4.747,6.316c0.041,0.396-0.014,0.841-0.157,1.211
			c-0.727,1.866-1.979,3.381-3.663,4.384c-2.183,1.3-4.461,2.458-6.772,3.513c-2.644,1.208-5.301,2.468-8.074,3.292
			c-4.824,1.431-9.718,0.954-14.553-0.199c-5.405-1.288-10.461-3.491-15.394-5.991c-1.816-0.92-2.875-0.954-4.038,0.122
			c-0.234,0.216-0.438,0.613-0.432,0.922c0.18,9.062-2.229,17.534-5.999,25.649c-2.738,5.895-5.725,11.673-8.575,17.516
			c-2.758,5.652-5.021,11.474-6.557,17.603c-1.604,6.391-1.029,12.523,1.14,18.664c1.295,3.662,2.296,7.431,3.37,11.168
			c0.245,0.853,0.369,1.778,0.335,2.66c-0.03,0.752-0.164,1.651-0.604,2.207c-2.223,2.806-2.993,6.121-3.462,9.522
			c-0.238,1.734-0.821,3.221-1.904,4.572c-2.103,2.622-4.519,4.9-7.194,6.931c-2.549,1.934-5.514,2.702-8.571,3.2
			c-1.739,0.283-3.51,0.378-5.264,0.564c-0.332,0.035-0.659,0.101-0.989,0.15C217.155,224.232,214.91,224.232,212.665,224.232z"/>
	</g>
</g>
</svg>
