<svg xmlns="http://www.w3.org/2000/svg" viewBox="0 0 63.91 62.54"><defs><style>.cls-1{fill:#fff;}</style></defs><title>ojdCiA.tif</title><g id="Layer_2" data-name="Layer 2"><g id="Layer_1-2" data-name="Layer 1"><g id="ojdCiA.tif"><path class="cls-1" d="M44.29.07a12.83,12.83,0,0,1,4.5,6.69c.32,1.24.9,1.54,2.12,1.6,5.26.27,9.58,2.2,11.92,7.28a12.55,12.55,0,0,1,.86,2.77c.54,2.62.25,3.28-2.39,3.79-2.84.56-5.76.75-9,1.14a42.56,42.56,0,0,0,.63,4.28,2.63,2.63,0,0,0,2.87,2,6.69,6.69,0,0,1,6,3.45,3.37,3.37,0,0,1,.1,2.5c-.11.31-1.34.33-2.05.31s-1.67-.29-2.52-.36c-2.19-.17-4.28-.37-5.52,2.25-.51,1.09-2,1.74-3.12,2.69a18.17,18.17,0,0,1-3.1,14.72A13.91,13.91,0,0,1,48.5,57a10,10,0,0,1,2.22,3.22c.6,1.56-.11,2.31-1.82,2.31-5.54,0-11.09-.06-16.63,0a15.87,15.87,0,0,1-7.83-2.06,3.9,3.9,0,0,0-2.64-.3A15.64,15.64,0,0,1,1.54,44.74,14.92,14.92,0,0,1,8.32,32.43a28.69,28.69,0,0,1,2.76-1.77c6-3.2,3.66-10.89-.56-13.16C7.11,15.66,3.81,16.1.08,19.29a25.25,25.25,0,0,1,0-4.19A17.91,17.91,0,0,1,19.54.1C30,1.27,36.94,9.84,35.84,19.94a13.09,13.09,0,0,1-1.56,4.41,3.73,3.73,0,0,1-3.35,2A18.13,18.13,0,0,0,15.19,48.92c.31,1.15.71,2.4,2.27,2s1.28-1.6,1-2.82A14.75,14.75,0,0,1,32.11,29.65C35,29.54,37,28.27,38,25.8a51.28,51.28,0,0,0,2.59-9.61c.56-3.28.45-6.66.82-10A10,10,0,0,1,44.29.07Z"/></g></g></g></svg>