<?xml version="1.0" encoding="utf-8"?>
<!-- Generator: Adobe Illustrator 16.0.0, SVG Export Plug-In . SVG Version: 6.00 Build 0)  -->
<!DOCTYPE svg PUBLIC "-//W3C//DTD SVG 1.1//EN" "http://www.w3.org/Graphics/SVG/1.1/DTD/svg11.dtd">
<svg version="1.1" id="Layer_1" xmlns="http://www.w3.org/2000/svg" xmlns:xlink="http://www.w3.org/1999/xlink" x="0px" y="0px"
	 width="757.346px" height="182.008px" viewBox="0 0 757.346 182.008" enable-background="new 0 0 757.346 182.008"
	 xml:space="preserve">
<polygon fill="#231F20" points="418.291,146.897 21.391,146.897 21.391,34.397 379.59,34.397 "/>
<path fill="#FFFFFF" d="M97.27,95.945c-5.308,4.431-12.89,6.645-22.742,6.645H55.645v32.607H36.818V44.512h38.938
	c8.979,0,16.135,2.338,21.471,7.014c5.338,4.676,8.006,11.916,8.006,21.719C105.232,83.949,102.578,91.516,97.27,95.945
	 M82.807,63.277c-2.398-2.01-5.761-3.016-10.084-3.016H55.645v26.702h17.078c4.323,0,7.686-1.087,10.084-3.261
	c2.399-2.174,3.6-5.619,3.6-10.336S85.206,65.287,82.807,63.277"/>
<path fill="#FFFFFF" d="M119.432,44.512h21.441l32.083,90.687h-20.548l-5.984-18.642h-33.396l-6.147,18.642H87.059L119.432,44.512z
	 M118.184,100.93h23.223l-11.455-35.685L118.184,100.93z"/>
<polygon fill="#FFFFFF" points="171.586,44.512 191.45,44.512 227.448,107.744 227.448,44.512 245.106,44.512 245.106,135.198 
	226.16,135.198 189.242,70.854 189.242,135.198 171.586,135.198 "/>
<path fill="#FFFFFF" d="M303.422,46.48c6.363,2.093,11.515,5.928,15.455,11.506c3.162,4.512,5.315,9.392,6.465,14.642
	c1.15,5.251,1.726,10.255,1.726,15.013c0,12.058-2.423,22.271-7.266,30.639c-6.568,11.279-16.707,16.919-30.417,16.919h-39.1V44.512
	h39.1C295.008,44.596,299.688,45.25,303.422,46.48 M268.682,60.262v59.187h17.5c8.955,0,15.199-4.409,18.732-13.228
	c1.93-4.84,2.896-10.603,2.896-17.289c0-9.229-1.449-16.312-4.346-21.256c-2.896-4.943-8.657-7.414-17.283-7.414H268.682z"/>
<path fill="#FFFFFF" d="M348.348,44.512h21.439l32.086,90.687h-20.549l-5.984-18.642h-33.396l-6.146,18.642h-19.821L348.348,44.512z
	 M347.098,100.93h23.227l-11.457-35.685L347.098,100.93z"/>
<path fill="#231F20" d="M695.346,166.904H0V15.077h695.346V166.904z M9,157.904h677.346V24.077H9V157.904z"/>
<polygon fill="#231F20" points="450.814,44.818 470.502,44.818 439.586,135.504 421.684,135.504 391.014,44.818 411.256,44.818 
	430.943,113.663 "/>
<rect x="472.316" y="44.818" fill="#231F20" width="18.826" height="90.686"/>
<polygon fill="#231F20" points="494.693,44.818 514.559,44.818 550.557,108.051 550.557,44.818 568.215,44.818 568.215,135.504 
	549.27,135.504 512.352,71.159 512.352,135.504 494.693,135.504 "/>
<path fill="#231F20" d="M582.939,54.293c7.303-7.465,16.596-11.197,27.875-11.197c15.096,0,26.133,5.004,33.111,15.012
	c3.855,5.619,5.924,11.258,6.209,16.918h-18.949c-1.205-4.347-2.754-7.629-4.643-9.843c-3.375-3.938-8.377-5.907-15.006-5.907
	c-6.752,0-12.076,2.78-15.973,8.338c-3.898,5.558-5.846,13.422-5.846,23.594c0,10.173,2.057,17.791,6.168,22.855
	c4.111,5.066,9.338,7.598,15.678,7.598c6.5,0,11.455-2.172,14.865-6.521c1.885-2.338,3.451-5.845,4.693-10.521h18.826
	c-1.623,9.885-5.771,17.925-12.447,24.117c-6.674,6.193-15.225,9.289-25.654,9.289c-12.902,0-23.049-4.183-30.432-12.55
	c-7.385-8.407-11.078-19.934-11.078-34.577C570.338,75.068,574.539,62.865,582.939,54.293"/>
<rect x="652.014" y="44.818" fill="#231F20" width="18.826" height="90.686"/>
<path fill="#231F20" d="M700.137,146.827v-6.345h23.348v6.345h-7.877v20.103h-7.699v-20.103H700.137z M736.816,140.482l4.811,15.22
	l4.742-15.22h10.977v26.447h-7.02v-19.145l-5.74,19.145h-5.988l-5.738-19.097v19.097h-7.023v-26.447H736.816z"/>
</svg>
