<?xml version="1.0" encoding="utf-8"?>
<!-- Generator: Adobe Illustrator 16.0.0, SVG Export Plug-In . SVG Version: 6.00 Build 0)  -->
<!DOCTYPE svg PUBLIC "-//W3C//DTD SVG 1.1//EN" "http://www.w3.org/Graphics/SVG/1.1/DTD/svg11.dtd">
<svg version="1.1" id="Layer_1" xmlns="http://www.w3.org/2000/svg" xmlns:xlink="http://www.w3.org/1999/xlink" x="0px" y="0px"
	 width="317.028px" height="182.008px" viewBox="214.426 0 317.028 182.008" enable-background="new 214.426 0 317.028 182.008"
	 xml:space="preserve">
<g>
	<linearGradient id="SVGID_1_" gradientUnits="userSpaceOnUse" x1="273.0518" y1="160.8027" x2="310.08" y2="125.4682">
		<stop  offset="0.1653" style="stop-color:#FFFFFF"/>
		<stop  offset="1" style="stop-color:#FFFFFF;stop-opacity:0"/>
	</linearGradient>
	<path fill="url(#SVGID_1_)" d="M354.114,151.995c-2.796,1.407-5.907,2.119-9.264,2.119c-3.05,0-5.818-0.571-8.275-1.705
		c-0.033,0.024-0.066,0.048-0.099,0.07c-5.379,3.682-10.856,7.104-16.41,9.797c-5.536,2.669-11.173,4.616-16.42,4.953
		c-2.623,0.184-5.137-0.026-7.535-0.639c-1.202-0.3-2.378-0.698-3.538-1.178c-0.577-0.228-1.005-0.484-1.525-0.703l-0.19-0.084
		l-0.264-0.154l-0.525-0.303l-1.052-0.607l-0.114-0.065l-0.141-0.092l-0.411-0.268c-0.281-0.174-0.541-0.365-0.805-0.551
		c-0.531-0.37-1.039-0.757-1.523-1.159c-0.973-0.805-1.875-1.647-2.698-2.539c-1.64-1.789-2.932-3.795-3.878-6.004
		c-1.882-4.411-2.442-9.64-2.02-14.96c0.408-5.327,1.641-10.715,3.276-15.892c3.2-10.427,7.963-19.998,12.56-28.705
		c2.326-4.35,4.708-8.461,7.053-12.332c2.326-3.886,4.598-7.547,6.804-10.949c4.434-6.785,8.396-12.681,11.801-17.438
		c3.348-4.804,6.098-8.501,7.951-11.042c1.883-2.518,2.887-3.86,2.887-3.86l0.408-0.547l-0.894-0.826l-0.511,0.451
		c0,0-5.074,4.478-13.213,13.07c-4.019,4.335-8.893,9.634-14.101,16.054c-2.612,3.204-5.361,6.648-8.146,10.38
		c-2.761,3.746-5.593,7.751-8.416,12.045c-2.842,4.283-5.624,8.886-8.27,13.824c-2.652,4.934-5.189,10.199-7.384,15.89
		c-2.129,5.71-3.978,11.846-4.795,18.575c-0.793,6.672-0.606,14.179,2.293,21.466c1.425,3.614,3.514,7.08,6.113,10.068
		c1.294,1.501,2.711,2.882,4.22,4.123c0.75,0.626,1.522,1.22,2.31,1.779c0.394,0.278,0.786,0.563,1.189,0.822l0.604,0.395
		l0.301,0.196l0.476,0.284l1.049,0.612l0.524,0.308l0.263,0.153l0.357,0.184c0.948,0.469,1.948,1.003,2.878,1.384
		c1.844,0.772,3.753,1.464,5.738,1.917c3.958,0.944,8.086,1.187,12.042,0.833c3.971-0.332,7.749-1.299,11.291-2.545
		c3.546-1.252,6.888-2.786,10.054-4.505c6.323-3.456,12.061-7.468,17.561-11.625c4.108-3.124,8.079-6.334,11.976-9.573h-1.206
		L354.114,151.995z"/>
	<path fill="#FFFFFF" d="M272.762,168.053l11.779-7.94c-0.422-0.397-0.828-0.807-1.216-1.225c-1.64-1.789-2.932-3.795-3.878-6.004
		c-1.882-4.411-2.442-9.64-2.02-14.96c0.408-5.327,1.641-10.715,3.276-15.892c3.2-10.427,7.963-19.998,12.56-28.705
		c2.326-4.35,4.708-8.461,7.053-12.332c2.326-3.886,4.598-7.547,6.804-10.949c4.434-6.785,8.396-12.681,11.801-17.438
		c3.348-4.804,6.098-8.501,7.951-11.042c1.883-2.518,2.887-3.86,2.887-3.86l0.408-0.547l-0.894-0.826l-0.511,0.451
		c0,0-5.074,4.478-13.213,13.07c-4.019,4.335-8.893,9.634-14.101,16.054c-2.612,3.204-5.361,6.648-8.146,10.38
		c-2.761,3.746-5.593,7.751-8.416,12.045c-2.842,4.283-5.624,8.886-8.27,13.824c-2.652,4.934-5.189,10.199-7.384,15.89
		c-2.129,5.71-3.978,11.846-4.795,18.575c-0.793,6.672-0.606,14.179,2.293,21.466C268.139,161.661,270.204,165.086,272.762,168.053z
		"/>
	<linearGradient id="SVGID_2_" gradientUnits="userSpaceOnUse" x1="506.1748" y1="73.0063" x2="405.6412" y2="118.0475">
		<stop  offset="0.3723" style="stop-color:#FFFFFF"/>
		<stop  offset="0.9083" style="stop-color:#FFFFFF;stop-opacity:0"/>
	</linearGradient>
	<path fill="url(#SVGID_2_)" d="M529.683,81.179c0.001,0-0.374-0.302-1.078-0.751c-0.712-0.448-1.775-1.102-3.235-1.78
		c-2.902-1.391-7.347-3.091-13.236-4.269c-5.879-1.194-13.161-1.89-21.502-1.781c-2.084,0.079-4.231,0.16-6.444,0.244
		c-2.219,0.149-4.507,0.372-6.861,0.567c-2.348,0.211-4.63,0.574-7.036,0.864c-0.596,0.081-1.198,0.161-1.801,0.242
		c-0.755,0.12-1.271,0.238-1.924,0.358c-1.242,0.245-2.503,0.469-3.757,0.771c-10.104,2.211-20.758,5.858-31.449,10.851
		c-9.475,4.396-18.969,9.835-28.331,16.017c3.336,0.627,6.267,1.948,8.735,3.989c0.313,0.259,0.595,0.549,0.882,0.831
		c7.454-5.043,14.924-9.554,22.359-13.365c10.019-5.145,19.981-8.972,29.458-11.424c1.179-0.332,2.362-0.588,3.527-0.863
		c0.561-0.13,1.117-0.259,1.673-0.389c0.597-0.128,1.188-0.255,1.776-0.381c2.345-0.491,4.677-1.068,6.873-1.456
		c2.198-0.369,4.334-0.767,6.433-1.094c2.117-0.264,4.173-0.521,6.165-0.77c7.989-0.795,15.018-0.732,20.733-0.077
		c5.72,0.639,10.125,1.772,13.006,2.83c1.454,0.504,2.511,1.018,3.213,1.365c0.706,0.357,1.006,0.556,1.007,0.556l0.569,0.373
		l0.774-1.033L529.683,81.179z"/>
</g>
<path fill="#FFFFFF" d="M258.515,58.883c-3.088,2.577-7.499,3.866-13.233,3.866h-10.986v18.972h-10.954V28.956h22.656
	c5.224,0,9.387,1.361,12.494,4.081c3.105,2.721,4.658,6.933,4.658,12.636C263.149,51.902,261.604,56.306,258.515,58.883z
	 M250.1,39.875c-1.396-1.169-3.352-1.754-5.868-1.754h-9.936v15.536h9.936c2.516,0,4.472-0.632,5.868-1.897
	c1.396-1.265,2.095-3.27,2.095-6.014S251.496,41.043,250.1,39.875z"/>
<g>
	<rect x="270.463" y="42.702" fill="#FFFFFF" width="10.345" height="39.019"/>
</g>
<path fill="#FFFFFF" d="M301.457,42.774h-12.492l14.246,21.924c2.447-2.657,5.519-6.125,7.286-8.131L301.457,42.774z
	 M314.876,63.248l-5.408,11.079l4.805,7.394h12.709L314.876,63.248z"/>
<path fill="#FFFFFF" d="M334.035,42.702h10.345v39.019h-10.345V42.702z"/>
<g>
	<g>
		<path fill="#FFFFFF" d="M221.757,100.215c4.25-4.344,9.657-6.515,16.219-6.515c8.783,0,15.205,2.912,19.267,8.733
			c2.242,3.271,3.445,6.551,3.611,9.846H249.83c-0.701-2.529-1.602-4.439-2.701-5.729c-1.963-2.29-4.874-3.438-8.731-3.438
			c-3.929,0-7.026,1.618-9.295,4.852c-2.267,3.235-3.4,7.81-3.4,13.728c0,5.92,1.195,10.352,3.588,13.3
			c2.393,2.947,5.433,4.421,9.122,4.421c3.781,0,6.665-1.264,8.65-3.794c1.096-1.36,2.007-3.402,2.731-6.123h10.954
			c-0.945,5.752-3.358,10.432-7.242,14.033c-3.885,3.604-8.861,5.407-14.928,5.407c-7.508,0-13.411-2.436-17.708-7.304
			c-4.297-4.892-6.445-11.599-6.445-20.118C214.426,112.303,216.869,105.203,221.757,100.215z"/>
	</g>
</g>
<g>
	<g>
		<path fill="#FFFFFF" d="M315.808,109.238c2.721,1.22,4.97,3.144,6.742,5.772c1.6,2.318,2.635,5.007,3.109,8.065
			c0.275,1.793,0.387,4.376,0.337,7.745h-28.419c0.158,3.915,1.518,6.659,4.081,8.233c1.558,0.98,3.433,1.467,5.624,1.467
			c2.325,0,4.214-0.594,5.666-1.79c0.791-0.644,1.493-1.537,2.1-2.683h10.416c-0.274,2.315-1.536,4.666-3.783,7.051
			c-3.495,3.794-8.389,5.692-14.68,5.692c-5.193,0-9.774-1.601-13.744-4.801c-3.969-3.201-5.955-8.408-5.955-15.622
			c0-6.759,1.792-11.942,5.375-15.548c3.583-3.608,8.235-5.411,13.953-5.411C310.027,107.41,313.086,108.02,315.808,109.238z
			 M300.545,118.052c-1.442,1.486-2.348,3.501-2.718,6.041h17.576c-0.185-2.709-1.091-4.764-2.718-6.167
			c-1.627-1.402-3.644-2.104-6.051-2.104C304.016,115.822,301.987,116.565,300.545,118.052z"/>
	</g>
</g>
<path fill="#FFFFFF" d="M350.675,123.734c1.9-0.238,3.258-0.538,4.076-0.896c1.466-0.62,2.199-1.585,2.199-2.898
	c0-1.599-0.562-2.703-1.688-3.312c-1.125-0.608-2.777-0.913-4.952-0.913c-2.443,0-4.174,0.597-5.19,1.79
	c-0.726,0.884-1.21,2.077-1.451,3.58h-9.845c0.215-3.414,1.175-6.216,2.875-8.413c2.708-3.436,7.359-5.153,13.951-5.153
	c4.29,0,8.101,0.847,11.433,2.541c3.332,1.695,4.997,4.892,4.997,9.595v17.898c0,1.241,0.024,2.743,0.072,4.51
	c0.072,1.337,0.274,2.243,0.609,2.721c0.334,0.478,0.835,0.871,1.503,1.18v1.504h-11.097c-0.31-0.788-0.525-1.525-0.645-2.219
	c-0.119-0.692-0.215-1.48-0.286-2.363c-1.416,1.526-3.049,2.829-4.898,3.903c-2.208,1.266-4.704,1.896-7.488,1.896
	c-3.553,0-6.487-1.007-8.804-3.024c-2.317-2.017-3.475-4.873-3.475-8.574c0-4.797,1.863-8.268,5.59-10.414
	c2.043-1.171,5.049-2.005,9.016-2.508L350.675,123.734z M356.914,128.493c-0.653,0.408-1.314,0.736-1.978,0.985
	c-0.666,0.251-1.58,0.484-2.74,0.699l-2.322,0.429c-2.177,0.383-3.74,0.848-4.689,1.396c-1.607,0.93-2.411,2.375-2.411,4.332
	c0,1.742,0.49,3.002,1.472,3.776c0.981,0.775,2.175,1.163,3.581,1.163c2.229,0,4.283-0.644,6.162-1.932
	c1.877-1.29,2.853-3.641,2.926-7.055V128.493z"/>
<g>
	<path fill="#FFFFFF" d="M408.3,110.686c2.554,2.111,3.833,5.615,3.833,10.506v26.275H401.68v-23.732
		c0-2.053-0.271-3.628-0.816-4.727c-0.997-2.005-2.893-3.006-5.687-3.006c-3.437,0-5.793,1.468-7.072,4.402
		c-0.664,1.553-0.995,3.531-0.995,5.942v21.12h-10.202V108.52h9.88v5.691c1.305-2.005,2.543-3.448,3.706-4.332
		c2.092-1.575,4.741-2.36,7.951-2.36C402.461,107.519,405.745,108.573,408.3,110.686z"/>
</g>
<g>
	<g>
		<path fill="#FFFFFF" d="M449.243,109.238c2.722,1.22,4.97,3.144,6.742,5.772c1.6,2.318,2.635,5.007,3.108,8.065
			c0.274,1.793,0.389,4.376,0.338,7.745h-28.419c0.158,3.915,1.519,6.659,4.08,8.233c1.558,0.98,3.434,1.467,5.624,1.467
			c2.324,0,4.214-0.594,5.666-1.79c0.791-0.644,1.492-1.537,2.099-2.683h10.417c-0.274,2.315-1.535,4.666-3.782,7.051
			c-3.496,3.794-8.389,5.692-14.681,5.692c-5.192,0-9.774-1.601-13.743-4.801c-3.969-3.201-5.954-8.408-5.954-15.622
			c0-6.759,1.791-11.942,5.375-15.548c3.583-3.608,8.234-5.411,13.953-5.411C443.463,107.41,446.521,108.02,449.243,109.238z
			 M433.979,118.052c-1.441,1.486-2.347,3.501-2.717,6.041h17.576c-0.185-2.709-1.091-4.764-2.718-6.167
			c-1.626-1.402-3.644-2.104-6.051-2.104C437.452,115.822,435.421,116.565,433.979,118.052z"/>
	</g>
</g>
<g>
	<g>
		<path fill="#FFFFFF" d="M489.823,107.535c0.13,0.012,0.423,0.031,0.876,0.054v10.453c-0.645-0.071-1.217-0.119-1.718-0.144
			c-0.502-0.022-0.906-0.035-1.218-0.035c-4.104,0-6.861,1.338-8.269,4.01c-0.787,1.503-1.183,3.818-1.183,6.944v18.649h-10.271
			v-39.019h9.735v6.802c1.576-2.6,2.948-4.38,4.117-5.334c1.909-1.599,4.392-2.397,7.445-2.397
			C489.531,107.519,489.69,107.524,489.823,107.535z"/>
	</g>
</g>
<g>
	<g>
		<path fill="#FFFFFF" d="M506.11,135.01c0.216,1.812,0.684,3.103,1.402,3.865c1.271,1.36,3.621,2.043,7.05,2.043
			c2.015,0,3.615-0.301,4.802-0.897c1.187-0.596,1.781-1.489,1.781-2.683c0-1.146-0.479-2.019-1.436-2.615
			c-0.956-0.595-4.515-1.623-10.673-3.078c-4.434-1.097-7.558-2.469-9.37-4.115c-1.814-1.623-2.721-3.963-2.721-7.017
			c0-3.604,1.417-6.7,4.25-9.291c2.834-2.589,6.823-3.883,11.964-3.883c4.88,0,8.856,0.972,11.928,2.917
			c3.073,1.946,4.838,5.304,5.293,10.076h-10.203c-0.143-1.312-0.515-2.349-1.112-3.114c-1.125-1.382-3.04-2.075-5.743-2.075
			c-2.226,0-3.812,0.346-4.757,1.038c-0.945,0.693-1.418,1.503-1.418,2.435c0,1.167,0.503,2.017,1.508,2.542
			c1.006,0.549,4.556,1.49,10.653,2.826c4.064,0.955,7.109,2.399,9.138,4.333c2.006,1.957,3.008,4.401,3.008,7.338
			c0,3.865-1.441,7.022-4.322,9.468c-2.882,2.447-7.335,3.67-13.361,3.67c-6.146,0-10.683-1.295-13.612-3.884
			c-2.931-2.59-4.394-5.889-4.394-9.898H506.11z"/>
	</g>
</g>
<g>
	<path fill="#FFFFFF" d="M280.809,37.245h-10.345V27.83h10.345V37.245z"/>
</g>
<polygon fill="#FFFFFF" points="341.499,13.822 355.982,7 344.617,18.265 357.756,27.401 342.322,23.179 340.975,39.13 
	336.91,23.647 322.428,30.464 333.801,19.203 320.658,10.075 336.089,14.289 337.432,-1.668 "/>
</svg>
