<?xml version="1.0" encoding="utf-8"?>
<!-- Generator: Adobe Illustrator 16.0.0, SVG Export Plug-In . SVG Version: 6.00 Build 0)  -->
<!DOCTYPE svg PUBLIC "-//W3C//DTD SVG 1.1//EN" "http://www.w3.org/Graphics/SVG/1.1/DTD/svg11.dtd">
<svg version="1.1" id="Layer_1" xmlns="http://www.w3.org/2000/svg" xmlns:xlink="http://www.w3.org/1999/xlink" x="0px" y="0px"
	 width="202.098px" height="196.5px" viewBox="0 0 202.098 196.5" enable-background="new 0 0 202.098 196.5" xml:space="preserve">
<g id="O3YAOb_1_">
	<g>
		<path fill-rule="evenodd" clip-rule="evenodd" fill="#EA0335" d="M28.378,194.164c0.999-4.666,3.559-8.676,5.552-12.906
			c8.933-18.966,17.943-37.896,27.075-56.768c1.134-2.347,0.554-3.356-1.329-4.721C40.703,106.012,21.789,92.173,2.861,78.355
			c-0.602-0.439-1.187-0.898-1.978-1.5c1.966-0.808,3.69-0.711,5.398-0.711c16.706-0.002,33.412,0.019,50.117-0.012
			c5.967-0.011,11.938-0.313,17.897-0.142c2.423,0.069,3.14-0.905,3.799-2.933c7.527-23.179,15.141-46.331,22.954-70.174
			c1.14,3.351,2.118,6.146,3.041,8.959c6.633,20.226,13.317,40.437,19.801,60.711c0.87,2.717,2.081,3.424,4.81,3.42
			c22.563-0.038,45.126,0.085,67.689,0.181c1.531,0.006,3.062,0.194,4.639,0.301c-0.071,1.231-1.053,1.447-1.687,1.911
			c-18.917,13.833-37.828,27.672-56.81,41.417c-1.939,1.404-2.407,2.451-1.297,4.758c10.618,22.074,21.105,44.212,31.599,66.346
			c0.438,0.925,1.42,1.786,0.649,3.354c-2.46-1.482-4.881-2.918-7.28-4.387c-20.817-12.754-41.646-25.485-62.416-38.316
			c-1.94-1.198-3.257-1.312-5.296-0.052c-22.266,13.771-44.611,27.416-66.954,41.064c-1.003,0.612-1.869,1.597-3.203,1.56
			L28.378,194.164z M91.019,108.751c-3.056-3.091-6.365-4.324-9.689-5.52c-2.178-0.785-4.408-1.478-6.214-3.008
			c-1.642-1.391-2.473-3.135-1.786-5.296c0.697-2.195,2.429-2.986,4.581-3.13c5.994-0.404,9.334,1.768,11.38,7.401
			c0.199,0.547,0.031,1.408,1.325,1.359c0.754-3.058,0.231-6.213,0.3-9.326c0.02-0.894-0.696-1.37-1.527-1.476
			c-4.91-0.627-9.793-1.874-14.788-0.693c-3.91,0.924-6.471,3.142-7.132,7.278c-0.675,4.223,0.537,7.611,4.18,10.018
			c2.14,1.415,4.531,2.274,6.903,3.169c2.269,0.855,4.598,1.577,6.475,3.219c1.85,1.618,2.456,3.636,1.775,5.976
			c-0.659,2.268-2.383,3.342-4.593,3.746c-6.05,1.102-10.296-1.053-13.046-6.539c-0.367-0.731-0.304-1.832-2.17-2.158
			c0.257,3.438,0.267,6.746,1.175,9.975c0.27,0.962,1.433,0.975,2.28,1.069c3.619,0.395,7.215,1.101,10.887,0.844
			c5.539-0.385,10.111-2.14,11.646-8.553c3.92,7.365,10.233,9.475,17.529,8.37c7.048-1.067,14.075-1.056,21.137-1.1
			c0.7-0.004,1.515,0.273,2.054-0.396c0-0.201,0.042-0.358-0.008-0.397c-0.249-0.192-0.52-0.493-0.789-0.503
			c-3.599-0.131-4.158-2.346-4.091-5.399c0.141-6.521,0.194-13.053-0.014-19.571c-0.121-3.811-0.02-7.098,4.846-7.545
			c0.053-0.005,0.073-0.354,0.2-1.036c-9.795,0.512-19.449-0.991-29.102-0.667c-6.447,0.217-10.46,4.717-12.551,10.74
			C91.248,102.316,91.185,105.182,91.019,108.751z"/>
		<polygon fill-rule="evenodd" clip-rule="evenodd" fill="#EA0335" points="28.335,194.111 28.177,194.196 28.377,194.162 		"/>
		<path fill-rule="evenodd" clip-rule="evenodd" fill="#FDF6F6" d="M91.019,108.751c0.166-3.569,0.229-6.435,1.171-9.149
			c2.091-6.023,6.104-10.523,12.551-10.74c9.652-0.324,19.307,1.179,29.102,0.667c-0.127,0.682-0.147,1.031-0.2,1.036
			c-4.865,0.448-4.967,3.734-4.846,7.545c0.208,6.519,0.154,13.05,0.014,19.571c-0.067,3.054,0.492,5.269,4.091,5.399
			c0.27,0.01,0.54,0.311,0.789,0.503c0.05,0.039,0.008,0.196,0.008,0.397c-0.539,0.669-1.354,0.392-2.054,0.396
			c-7.062,0.044-14.089,0.032-21.137,1.1c-7.296,1.104-13.608-1.005-17.529-8.37c-1.535,6.413-6.108,8.168-11.646,8.553
			c-3.672,0.257-7.268-0.449-10.887-0.844c-0.847-0.095-2.01-0.107-2.28-1.069c-0.908-3.229-0.917-6.537-1.175-9.975
			c1.866,0.326,1.803,1.427,2.17,2.158c2.75,5.486,6.996,7.641,13.046,6.539c2.21-0.404,3.934-1.479,4.593-3.746
			c0.681-2.34,0.074-4.357-1.775-5.976c-1.876-1.642-4.206-2.363-6.475-3.219c-2.373-0.896-4.764-1.754-6.903-3.169
			c-3.643-2.407-4.855-5.795-4.18-10.018c0.661-4.136,3.223-6.354,7.132-7.278c4.995-1.181,9.878,0.066,14.788,0.693
			c0.831,0.106,1.547,0.582,1.527,1.476c-0.069,3.112,0.454,6.268-0.3,9.326c-1.294,0.049-1.126-0.812-1.325-1.359
			c-2.045-5.633-5.386-7.805-11.38-7.401c-2.152,0.145-3.884,0.936-4.581,3.13c-0.687,2.161,0.145,3.905,1.786,5.296
			c1.806,1.531,4.036,2.223,6.214,3.008C84.654,104.428,87.963,105.661,91.019,108.751z M121.969,107.005c-0.016,0-0.031,0-0.047,0
			c0-4.204-0.022-8.407,0.01-12.61c0.016-2.047-1-3.286-2.964-3.134c-1.902,0.148-0.734,1.884-0.988,2.884
			c-0.158,0.623,0.07,1.338-0.05,1.979c-0.271,1.438,0.895,3.775-0.704,4.136c-1.552,0.348-1.289-2.162-1.836-3.366
			c-1.48-3.254-3.831-4.97-7.406-5.203c-3.054-0.199-5.659,0.681-6.896,3.521c-3.324,7.635-3.563,15.454-0.192,23.123
			c1.341,3.052,4.042,4.47,7.555,4.316c3.595-0.158,6.088-1.697,7.435-5.041c0.248-0.614,0.479-1.237,0.668-1.872
			c0.215-0.729,0.323-1.755,1.306-1.523c0.901,0.214,0.705,1.253,0.688,2.01c-0.032,1.437-0.112,2.871-0.156,4.309
			c-0.026,0.812-0.52,1.907,0.871,2.043c1.043,0.1,2.058-0.226,2.39-1.351c0.246-0.826,0.298-1.734,0.305-2.606
			C121.987,114.75,121.969,110.877,121.969,107.005z"/>
		<path fill-rule="evenodd" clip-rule="evenodd" fill="#EA0335" d="M121.969,107.005c0,3.872,0.018,7.745-0.014,11.615
			c-0.007,0.872-0.059,1.78-0.305,2.606c-0.332,1.125-1.347,1.45-2.39,1.351c-1.391-0.136-0.897-1.23-0.871-2.043
			c0.044-1.438,0.124-2.872,0.156-4.309c0.018-0.757,0.214-1.796-0.688-2.01c-0.982-0.231-1.091,0.795-1.306,1.523
			c-0.188,0.635-0.42,1.258-0.668,1.872c-1.347,3.344-3.84,4.883-7.435,5.041c-3.513,0.153-6.214-1.265-7.555-4.316
			c-3.371-7.669-3.132-15.488,0.192-23.123c1.237-2.84,3.842-3.72,6.896-3.521c3.575,0.233,5.926,1.949,7.406,5.203
			c0.547,1.204,0.284,3.714,1.836,3.366c1.599-0.361,0.434-2.698,0.704-4.136c0.12-0.642-0.108-1.356,0.05-1.979
			c0.254-1-0.914-2.735,0.988-2.884c1.964-0.152,2.979,1.087,2.964,3.134c-0.032,4.203-0.01,8.406-0.01,12.61
			C121.938,107.005,121.954,107.005,121.969,107.005z"/>
	</g>
</g>
</svg>
