<?xml version="1.0" encoding="utf-8"?>
<!-- Generator: Adobe Illustrator 16.0.0, SVG Export Plug-In . SVG Version: 6.00 Build 0)  -->
<!DOCTYPE svg PUBLIC "-//W3C//DTD SVG 1.1//EN" "http://www.w3.org/Graphics/SVG/1.1/DTD/svg11.dtd">
<svg version="1.1" id="Layer_2" xmlns="http://www.w3.org/2000/svg" xmlns:xlink="http://www.w3.org/1999/xlink" x="0px" y="0px"
	 width="235.5px" height="235.008px" viewBox="-25.514 -20.605 235.5 235.008"
	 enable-background="new -25.514 -20.605 235.5 235.008" xml:space="preserve">
<path fill="#FFFFFF" d="M92.236-20.917c-65.032,0-117.75,52.718-117.75,117.75s52.718,117.75,117.75,117.75
	s117.75-52.718,117.75-117.75S157.268-20.917,92.236-20.917z M148.128,71.989c-0.54,11.774-8.749,27.896-24.684,48.368
	c-16.446,21.39-30.354,32.083-41.752,32.083c-7.048,0-13.017-6.509-17.904-19.525C54.282,98.024,50.231,77.58,42.373,77.58
	c-0.918,0-4.078,1.917-9.507,5.698l-5.671-7.346C41.13,63.698,54.444,50.086,62.789,49.331c9.426-0.918,15.205,5.536,17.393,19.31
	c7.75,49.017,11.18,56.416,25.277,34.216c5.05-7.993,7.777-14.069,8.156-18.256c1.297-12.396-9.669-11.558-17.095-8.371
	c5.941-19.472,17.311-28.924,34.082-28.384C142.97,48.169,148.832,56.244,148.128,71.989z"/>
</svg>
